<svg xmlns="http://www.w3.org/2000/svg" xmlns:xlink="http://www.w3.org/1999/xlink" width="200" zoomAndPan="magnify" viewBox="0 0 150 149.999998" height="200" preserveAspectRatio="xMidYMid meet" version="1.0"><defs><clipPath id="1144553704"><path d="M 45 49.417969 L 105 49.417969 L 105 100.417969 L 45 100.417969 Z M 45 49.417969 " clip-rule="nonzero"/></clipPath></defs><g clip-path="url(#1144553704)"><path fill="#ff3131" d="M 77.265625 73.367188 C 77.253906 73.367188 77.253906 73.394531 77.265625 73.394531 C 77.28125 73.394531 77.28125 73.367188 77.265625 73.367188 Z M 63.515625 51.984375 C 63.25 51.917969 63.039062 51.703125 62.894531 51.480469 C 62.714844 51.207031 62.617188 50.894531 62.492188 50.597656 C 62.363281 50.300781 62.1875 50.027344 61.929688 49.828125 C 61.734375 49.679688 61.484375 49.570312 61.234375 49.605469 C 61.242188 49.585938 61.253906 49.566406 61.257812 49.546875 C 61.277344 49.46875 61.175781 49.40625 61.121094 49.46875 C 61.027344 49.566406 60.964844 49.6875 60.890625 49.800781 C 60.820312 49.914062 60.753906 50.03125 60.6875 50.140625 C 60.550781 50.375 60.414062 50.605469 60.273438 50.839844 C 60.230469 50.917969 60.265625 50.992188 60.324219 51.03125 C 60.253906 51.078125 60.25 51.195312 60.355469 51.21875 C 60.46875 51.246094 60.582031 51.324219 60.640625 51.429688 C 60.667969 51.480469 60.675781 51.546875 60.691406 51.597656 C 60.714844 51.664062 60.734375 51.730469 60.75 51.796875 C 60.832031 52.089844 60.875 52.390625 61.035156 52.65625 C 61.296875 53.097656 61.84375 53.332031 62.351562 53.296875 C 62.375 53.292969 62.394531 53.285156 62.40625 53.269531 C 62.429688 53.292969 62.46875 53.296875 62.496094 53.265625 C 62.523438 53.238281 62.550781 53.214844 62.574219 53.1875 C 62.589844 53.160156 62.605469 53.132812 62.621094 53.109375 C 62.652344 53.050781 62.6875 52.996094 62.726562 52.945312 C 62.796875 52.839844 62.878906 52.742188 62.960938 52.648438 C 63.050781 52.550781 63.144531 52.460938 63.242188 52.371094 C 63.289062 52.332031 63.339844 52.292969 63.386719 52.253906 C 63.417969 52.257812 63.445312 52.265625 63.476562 52.269531 C 63.644531 52.289062 63.671875 52.023438 63.515625 51.984375 Z M 63.210938 52.210938 C 63.191406 52.226562 63.164062 52.242188 63.144531 52.257812 C 63.035156 52.34375 62.9375 52.433594 62.839844 52.53125 C 62.742188 52.632812 62.65625 52.738281 62.570312 52.847656 C 62.53125 52.902344 62.492188 52.957031 62.457031 53.015625 C 62.421875 53.066406 62.402344 53.113281 62.386719 53.175781 C 62.378906 53.167969 62.367188 53.15625 62.351562 53.15625 C 61.875 53.097656 61.445312 52.722656 61.289062 52.273438 C 61.1875 51.992188 61.1875 51.632812 60.992188 51.394531 C 60.863281 51.238281 60.695312 51.09375 60.496094 51.035156 C 60.511719 51.023438 60.523438 51.007812 60.535156 50.988281 C 60.660156 50.75 60.785156 50.511719 60.910156 50.273438 C 60.972656 50.152344 61.035156 50.035156 61.09375 49.917969 C 61.109375 49.886719 61.125 49.859375 61.136719 49.828125 C 61.148438 49.828125 61.160156 49.832031 61.171875 49.832031 C 61.871094 49.859375 62.097656 50.53125 62.308594 51.085938 C 62.484375 51.558594 62.738281 52.039062 63.210938 52.210938 Z M 55.523438 57.792969 C 56.074219 58.089844 56.628906 58.390625 57.175781 58.683594 C 56.835938 59.34375 56.5625 60.035156 56.363281 60.75 C 56.3125 60.925781 56.503906 61.039062 56.652344 60.972656 C 57.050781 60.789062 57.339844 60.46875 57.660156 60.1875 C 58.023438 59.867188 58.503906 59.574219 58.933594 59.941406 C 59.445312 60.378906 59.648438 61.082031 60.246094 61.4375 C 60.386719 61.519531 60.570312 61.378906 60.523438 61.222656 C 60.355469 60.613281 60.242188 59.996094 60.183594 59.367188 C 60.734375 59.238281 61.226562 58.972656 61.667969 58.613281 C 61.792969 58.507812 61.703125 58.324219 61.578125 58.277344 C 60.964844 58.050781 60.386719 57.792969 59.921875 57.320312 C 59.460938 56.847656 59.050781 56.359375 59.011719 55.667969 C 59.011719 55.660156 59.011719 55.652344 59.007812 55.648438 C 59.007812 55.597656 59.003906 55.546875 58.996094 55.496094 C 58.96875 55.253906 58.589844 55.246094 58.613281 55.496094 C 58.761719 56.992188 56.628906 57.300781 55.566406 57.441406 C 55.402344 57.46875 55.390625 57.71875 55.523438 57.792969 Z M 56.902344 60.335938 C 57.085938 59.773438 57.316406 59.226562 57.601562 58.703125 C 57.648438 58.613281 57.625 58.488281 57.53125 58.4375 C 57.089844 58.199219 56.648438 57.964844 56.210938 57.730469 C 57.222656 57.554688 58.515625 57.191406 58.898438 56.277344 C 59.019531 56.746094 59.285156 57.195312 59.597656 57.53125 C 60.03125 57.996094 60.554688 58.285156 61.125 58.519531 C 60.757812 58.765625 60.359375 58.941406 59.917969 59.019531 C 59.835938 59.035156 59.765625 59.128906 59.773438 59.210938 C 59.816406 59.722656 59.894531 60.226562 60.011719 60.726562 C 59.652344 60.292969 59.417969 59.71875 58.878906 59.476562 C 58.09375 59.125 57.5 59.851562 56.902344 60.335938 Z M 58.234375 79.09375 C 58.292969 79.839844 58.386719 80.589844 58.691406 81.261719 C 58.867188 81.792969 59.140625 82.289062 59.53125 82.6875 C 60.375 83.550781 61.785156 83.855469 62.84375 83.210938 C 63.078125 83.066406 63.289062 82.882812 63.453125 82.667969 C 63.957031 82.929688 64.523438 83.085938 65.078125 83.035156 C 65.066406 83.804688 65.167969 84.570312 65.472656 85.28125 C 65.597656 85.578125 65.757812 85.851562 65.953125 86.105469 C 65.914062 86.335938 66.007812 86.597656 66.289062 86.699219 C 68.683594 87.554688 71.074219 88.40625 73.472656 89.25 C 77.6875 90.734375 81.910156 92.191406 86.140625 93.632812 C 88.273438 94.355469 90.40625 95.082031 92.546875 95.789062 C 93.609375 96.140625 94.667969 96.496094 95.722656 96.847656 C 95.945312 96.925781 96.167969 97 96.390625 97.078125 C 96.425781 97.109375 96.46875 97.121094 96.515625 97.121094 C 96.691406 97.183594 96.863281 97.242188 97.039062 97.304688 C 97.050781 97.324219 97.070312 97.339844 97.09375 97.347656 C 98.292969 97.710938 99.269531 98.363281 99.941406 99.4375 C 100.191406 99.832031 100.488281 100.234375 100.949219 100.402344 C 101.402344 100.566406 101.925781 100.445312 102.320312 100.1875 C 102.785156 99.886719 103.109375 99.410156 103.414062 98.960938 C 103.742188 98.472656 104.039062 97.960938 104.296875 97.429688 C 104.539062 96.941406 104.824219 96.390625 104.886719 95.839844 C 104.941406 95.371094 104.742188 94.949219 104.386719 94.640625 C 104.042969 94.335938 103.613281 94.160156 103.183594 94.003906 C 102.796875 93.867188 102.402344 93.746094 102.097656 93.488281 C 100.5625 91.636719 99 89.808594 97.441406 87.972656 C 94.703125 84.753906 92.070312 81.445312 89.449219 78.132812 C 88.140625 76.480469 86.84375 74.816406 85.546875 73.148438 C 84.886719 72.300781 84.234375 71.457031 83.574219 70.609375 C 82.929688 69.777344 82.320312 68.875 81.597656 68.109375 C 81.5625 68.035156 81.5 67.972656 81.402344 67.933594 C 79.089844 67.039062 76.640625 67.53125 74.53125 68.726562 C 73.84375 69.117188 73.195312 69.570312 72.574219 70.066406 C 72.527344 69.992188 72.472656 69.929688 72.402344 69.867188 C 71.929688 69.476562 71.222656 69.628906 70.722656 69.878906 C 70.230469 70.128906 69.8125 70.628906 69.929688 71.191406 C 69.808594 71.152344 69.6875 71.113281 69.570312 71.058594 C 69.371094 70.964844 69.195312 70.835938 69.035156 70.691406 C 69.234375 70.582031 69.421875 70.445312 69.597656 70.289062 C 70.203125 69.75 70.714844 68.785156 70.609375 67.949219 C 70.605469 67.914062 70.558594 67.902344 70.542969 67.933594 C 70.546875 67.890625 70.535156 67.847656 70.5 67.804688 C 70.171875 67.414062 69.859375 67.011719 69.519531 66.632812 C 69.335938 66.425781 69.144531 66.214844 68.949219 66.015625 C 68.75 65.679688 68.414062 65.421875 68.035156 65.328125 C 67.707031 65.242188 67.292969 65.261719 67.042969 65.507812 C 66.460938 65.769531 66.019531 66.417969 65.921875 67.019531 C 65.804688 67.6875 66.046875 68.445312 66.5625 68.902344 C 66.550781 68.902344 66.539062 68.90625 66.53125 68.90625 C 65.597656 68.917969 64.738281 68.324219 64.273438 67.542969 C 63.105469 65.582031 64.210938 63.152344 65.152344 61.347656 C 65.261719 61.144531 64.960938 60.964844 64.84375 61.164062 C 64.207031 62.203125 63.617188 63.265625 63.367188 64.445312 C 63.054688 65.386719 62.933594 66.386719 63.105469 67.367188 C 63.445312 69.289062 64.996094 70.945312 66.980469 71.128906 C 67.441406 71.171875 67.902344 71.125 68.339844 70.992188 C 68.34375 71.003906 68.34375 71.011719 68.347656 71.023438 C 68.695312 71.707031 69.164062 72.347656 69.757812 72.8125 C 69.664062 72.917969 69.566406 73.019531 69.476562 73.128906 C 68.269531 74.535156 67.269531 76.113281 66.488281 77.792969 C 66.054688 78.722656 65.679688 79.703125 65.421875 80.707031 C 65.390625 80.703125 65.359375 80.699219 65.324219 80.699219 C 65.292969 80.699219 65.257812 80.699219 65.226562 80.699219 C 65.175781 80.675781 65.121094 80.65625 65.058594 80.644531 C 64.675781 80.597656 64.355469 80.945312 64.203125 81.257812 C 64.113281 81.441406 64.054688 81.652344 64.097656 81.855469 C 64.125 81.972656 64.191406 82.085938 64.28125 82.175781 C 64.199219 82.203125 64.113281 82.226562 64.027344 82.246094 C 63.917969 82.265625 63.808594 82.265625 63.699219 82.253906 C 63.75 82.136719 63.792969 82.015625 63.820312 81.882812 C 63.925781 81.398438 63.839844 80.726562 63.472656 80.355469 C 63.464844 80.347656 63.453125 80.347656 63.441406 80.355469 C 63.425781 80.339844 63.410156 80.328125 63.382812 80.320312 C 62.914062 80.210938 62.441406 80.066406 61.960938 79.996094 C 61.742188 79.90625 61.488281 79.902344 61.269531 79.996094 C 61.082031 80.074219 60.890625 80.230469 60.863281 80.4375 C 60.777344 80.59375 60.734375 80.78125 60.726562 80.949219 C 60.710938 81.179688 60.757812 81.414062 60.867188 81.617188 C 61.039062 81.949219 61.414062 82.222656 61.796875 82.273438 C 61.328125 82.609375 60.675781 82.609375 60.167969 82.363281 C 58.96875 81.773438 58.660156 80.257812 58.476562 79.0625 C 58.453125 78.929688 58.226562 78.960938 58.234375 79.09375 Z M 61.5625 80.140625 C 61.804688 80.132812 62.007812 80.257812 62.152344 80.441406 C 62.0625 80.449219 61.972656 80.492188 61.902344 80.539062 C 61.726562 80.664062 61.632812 80.878906 61.621094 81.09375 C 61.613281 81.308594 61.691406 81.511719 61.835938 81.671875 C 61.921875 81.769531 62.03125 81.839844 62.148438 81.882812 C 62.105469 81.953125 62.058594 82.015625 62.007812 82.074219 C 62 82.074219 61.996094 82.066406 61.988281 82.066406 C 61.601562 82.015625 61.265625 81.859375 61.054688 81.519531 C 60.949219 81.347656 60.894531 81.148438 60.890625 80.949219 C 60.882812 80.742188 60.949219 80.5625 61.023438 80.371094 C 61.171875 80.234375 61.335938 80.144531 61.5625 80.140625 Z M 62.25 81.6875 C 62.046875 81.582031 61.902344 81.382812 61.898438 81.144531 C 61.898438 80.996094 61.9375 80.851562 62.015625 80.726562 C 62.066406 80.648438 62.144531 80.597656 62.234375 80.574219 C 62.253906 80.609375 62.269531 80.644531 62.28125 80.683594 C 62.414062 81.003906 62.386719 81.371094 62.25 81.6875 Z M 65.113281 81.019531 C 65.300781 81.171875 65.226562 81.464844 65.117188 81.640625 C 64.96875 81.871094 64.71875 81.992188 64.476562 82.097656 C 64.375 81.988281 64.367188 81.84375 64.382812 81.699219 C 64.402344 81.539062 64.472656 81.394531 64.566406 81.261719 C 64.667969 81.113281 64.921875 80.863281 65.113281 81.019531 Z M 68.257812 65.757812 C 68.617188 66 68.78125 66.390625 68.785156 66.800781 C 68.695312 66.738281 68.578125 66.703125 68.472656 66.6875 C 67.945312 66.605469 67.460938 66.972656 67.257812 67.4375 C 67.078125 67.851562 67.132812 68.347656 67.382812 68.71875 C 67.246094 68.777344 67.105469 68.820312 66.964844 68.851562 C 66.957031 68.828125 66.949219 68.804688 66.925781 68.785156 C 66.445312 68.328125 66.144531 67.738281 66.230469 67.058594 C 66.269531 66.742188 66.398438 66.433594 66.585938 66.175781 C 66.785156 65.902344 67.042969 65.734375 67.328125 65.558594 C 67.648438 65.515625 67.957031 65.554688 68.257812 65.757812 Z M 67.761719 67.398438 C 67.996094 67.105469 68.414062 66.863281 68.769531 67.019531 C 68.761719 67.078125 68.753906 67.140625 68.738281 67.199219 C 68.597656 67.785156 68.183594 68.273438 67.667969 68.574219 C 67.472656 68.203125 67.488281 67.738281 67.761719 67.398438 Z M 69.035156 70.214844 C 67.5 71.175781 65.464844 70.597656 64.394531 69.222656 C 63.910156 68.601562 63.625 67.878906 63.503906 67.128906 C 63.726562 67.761719 64.097656 68.332031 64.640625 68.765625 C 65.5625 69.492188 66.785156 69.667969 67.824219 69.070312 C 68.664062 68.59375 69.320312 67.574219 69.160156 66.601562 C 69.214844 66.667969 69.269531 66.730469 69.324219 66.796875 C 69.640625 67.191406 69.953125 67.589844 70.21875 68.019531 C 70.304688 68.160156 70.460938 68.117188 70.519531 68.019531 C 70.414062 68.457031 70.308594 68.84375 70.054688 69.230469 C 69.796875 69.625 69.4375 69.96875 69.035156 70.214844 Z M 70.425781 71.742188 C 71.054688 71.898438 71.785156 71.890625 72.304688 71.4375 C 72.558594 71.214844 72.71875 70.855469 72.707031 70.515625 C 72.773438 70.59375 72.835938 70.667969 72.902344 70.742188 C 72.90625 70.75 72.90625 70.757812 72.910156 70.765625 C 72.910156 70.761719 72.914062 70.761719 72.917969 70.757812 C 72.957031 70.804688 72.996094 70.855469 73.039062 70.902344 C 73.191406 71.078125 73.34375 71.253906 73.492188 71.433594 C 73.632812 71.609375 73.757812 71.804688 73.910156 71.96875 C 73.917969 71.972656 73.925781 71.976562 73.933594 71.984375 C 73.867188 72.128906 73.808594 72.277344 73.6875 72.40625 C 73.488281 72.617188 73.253906 72.785156 72.988281 72.902344 C 72.722656 73.019531 72.4375 73.09375 72.148438 73.125 C 72.101562 73.105469 72.054688 73.113281 72.019531 73.136719 C 71.757812 73.152344 71.492188 73.136719 71.238281 73.082031 C 70.039062 72.832031 69.222656 71.882812 68.566406 70.914062 C 68.675781 70.871094 68.785156 70.824219 68.890625 70.769531 C 69.300781 71.230469 69.820312 71.59375 70.425781 71.742188 Z M 75.960938 74.753906 C 75.953125 74.980469 75.753906 75.132812 75.558594 75.203125 C 75.082031 75.375 74.542969 75.125 74.109375 74.941406 C 73.328125 74.617188 72.632812 74.15625 72.03125 73.574219 C 72.085938 73.570312 72.136719 73.570312 72.191406 73.5625 C 72.265625 73.628906 72.34375 73.691406 72.414062 73.75 C 72.570312 73.875 72.734375 73.996094 72.90625 74.097656 C 73.25 74.308594 73.632812 74.484375 74.023438 74.597656 C 74.410156 74.707031 74.910156 74.824219 75.300781 74.699219 C 75.449219 74.652344 75.582031 74.5625 75.671875 74.429688 C 75.683594 74.414062 75.695312 74.386719 75.707031 74.363281 C 75.855469 74.457031 75.964844 74.558594 75.960938 74.753906 Z M 72.082031 70.25 C 72.273438 70.417969 72.21875 70.71875 72.09375 70.90625 C 71.730469 71.453125 70.96875 71.441406 70.40625 71.3125 C 70.347656 71.300781 70.296875 71.289062 70.238281 71.273438 C 70.183594 70.980469 70.390625 70.707031 70.601562 70.523438 C 70.820312 70.328125 71.113281 70.203125 71.402344 70.144531 C 71.617188 70.105469 71.90625 70.097656 72.082031 70.25 Z M 99.09375 97.921875 C 99.988281 97.652344 100.734375 97.03125 101.246094 96.246094 C 101.550781 95.78125 101.746094 95.230469 101.824219 94.679688 C 101.863281 94.398438 101.875 94.113281 101.855469 93.828125 C 101.84375 93.679688 101.832031 93.535156 101.796875 93.394531 C 101.863281 93.460938 101.933594 93.527344 102 93.597656 C 102.007812 93.601562 102.011719 93.605469 102.019531 93.605469 C 102.535156 94.175781 103.371094 94.363281 103.96875 94.859375 C 104.417969 95.226562 104.511719 95.664062 104.316406 96.207031 C 104.140625 96.710938 103.898438 97.195312 103.640625 97.664062 C 103.375 98.144531 103.074219 98.605469 102.734375 99.039062 C 102.421875 99.4375 102.015625 99.890625 101.476562 99.9375 C 100.988281 99.980469 100.660156 99.613281 100.378906 99.265625 C 100.078125 98.910156 99.820312 98.535156 99.472656 98.222656 C 99.347656 98.117188 99.222656 98.019531 99.09375 97.921875 Z M 95.453125 96.441406 C 95.449219 96.441406 95.445312 96.441406 95.445312 96.441406 C 95.601562 96.40625 95.753906 96.351562 95.917969 96.269531 C 96.230469 96.109375 96.546875 95.917969 96.824219 95.703125 C 97.375 95.277344 97.847656 94.757812 98.222656 94.175781 C 98.601562 93.582031 98.894531 92.925781 99.078125 92.25 C 99.167969 91.914062 99.234375 91.578125 99.25 91.234375 C 99.253906 91.082031 99.242188 90.925781 99.222656 90.769531 C 99.355469 90.90625 99.480469 91.046875 99.613281 91.183594 C 99.605469 91.203125 99.601562 91.222656 99.597656 91.246094 C 99.582031 91.371094 99.601562 91.511719 99.613281 91.636719 C 99.628906 91.761719 99.667969 91.878906 99.675781 92.003906 C 99.679688 92.121094 99.683594 92.242188 99.671875 92.363281 C 99.65625 92.496094 99.601562 92.636719 99.554688 92.761719 C 99.550781 92.777344 99.570312 92.78125 99.574219 92.769531 C 99.621094 92.636719 99.648438 92.496094 99.699219 92.367188 C 99.746094 92.246094 99.792969 92.132812 99.832031 92.011719 C 99.875 91.878906 99.941406 91.75 99.957031 91.613281 C 99.960938 91.59375 99.960938 91.574219 99.964844 91.554688 C 100.492188 92.105469 101.035156 92.648438 101.578125 93.1875 C 101.527344 93.398438 101.542969 93.617188 101.523438 93.839844 C 101.503906 94.097656 101.457031 94.355469 101.386719 94.605469 C 101.257812 95.097656 101.054688 95.554688 100.773438 95.980469 C 100.277344 96.738281 99.496094 97.285156 98.679688 97.65625 C 98.300781 97.4375 97.890625 97.28125 97.460938 97.195312 C 97.269531 97.121094 97.082031 97.050781 96.890625 96.980469 C 97.226562 96.800781 97.523438 96.539062 97.765625 96.25 C 97.914062 96.070312 98.0625 95.878906 98.195312 95.6875 C 98.3125 95.515625 98.464844 95.285156 98.457031 95.070312 C 98.457031 95.050781 98.433594 95.03125 98.414062 95.042969 C 98.320312 95.105469 98.253906 95.1875 98.191406 95.277344 C 98.128906 95.363281 98.058594 95.449219 97.992188 95.535156 C 97.855469 95.699219 97.710938 95.847656 97.539062 95.980469 C 97.363281 96.113281 97.175781 96.226562 96.988281 96.34375 C 96.800781 96.464844 96.597656 96.554688 96.402344 96.664062 C 96.355469 96.6875 96.328125 96.726562 96.308594 96.769531 C 96.019531 96.652344 95.738281 96.550781 95.453125 96.441406 Z M 91.917969 95.085938 C 91.3125 94.855469 90.707031 94.628906 90.101562 94.402344 C 90.773438 94.167969 91.417969 93.789062 91.980469 93.394531 C 92.730469 92.859375 93.386719 92.214844 93.929688 91.46875 C 94.9375 90.085938 95.53125 88.160156 95.351562 86.414062 C 96.558594 87.828125 97.785156 89.21875 99.046875 90.578125 C 98.996094 90.796875 98.933594 91.011719 98.882812 91.230469 C 98.808594 91.53125 98.738281 91.835938 98.648438 92.128906 C 98.464844 92.722656 98.203125 93.285156 97.871094 93.804688 C 97.535156 94.324219 97.136719 94.796875 96.691406 95.222656 C 96.210938 95.683594 95.589844 96.210938 94.882812 96.222656 C 93.894531 95.84375 92.90625 95.460938 91.917969 95.085938 Z M 84.316406 92.222656 C 84.527344 92.109375 84.734375 91.992188 84.925781 91.875 C 85.390625 91.601562 85.835938 91.296875 86.261719 90.96875 C 89.125 88.753906 91.269531 85.214844 91.269531 81.53125 C 91.988281 82.40625 92.710938 83.28125 93.441406 84.152344 C 94.019531 84.839844 94.597656 85.527344 95.179688 86.207031 C 95.105469 87.058594 94.980469 87.882812 94.699219 88.699219 C 94.398438 89.566406 93.949219 90.371094 93.398438 91.101562 C 92.886719 91.777344 92.253906 92.375 91.554688 92.855469 C 90.828125 93.355469 90.046875 93.664062 89.238281 93.992188 C 89.203125 94.007812 89.179688 94.027344 89.152344 94.046875 C 89.042969 94.003906 88.933594 93.964844 88.828125 93.925781 C 89.0625 93.832031 89.300781 93.71875 89.515625 93.617188 C 89.914062 93.425781 90.296875 93.207031 90.664062 92.957031 C 91.386719 92.46875 92.046875 91.886719 92.609375 91.222656 C 93.175781 90.558594 93.644531 89.820312 94 89.015625 C 94.332031 88.261719 94.695312 87.324219 94.640625 86.488281 C 94.636719 86.410156 94.535156 86.398438 94.511719 86.46875 C 94.359375 86.882812 94.285156 87.320312 94.144531 87.738281 C 94.007812 88.140625 93.84375 88.539062 93.652344 88.917969 C 93.28125 89.664062 92.804688 90.367188 92.253906 90.992188 C 91.699219 91.617188 91.066406 92.175781 90.367188 92.632812 C 90.007812 92.863281 89.632812 93.070312 89.246094 93.246094 C 88.882812 93.410156 88.503906 93.515625 88.136719 93.664062 C 86.867188 93.179688 85.59375 92.699219 84.316406 92.222656 Z M 79.285156 90.34375 C 78.761719 90.152344 78.238281 89.964844 77.71875 89.773438 C 78.65625 89.335938 79.539062 88.777344 80.355469 88.15625 C 82.378906 86.617188 84.03125 84.609375 85.0625 82.285156 C 86.003906 80.144531 86.515625 77.777344 86.378906 75.433594 C 87.679688 77.078125 88.984375 78.714844 90.304688 80.34375 C 90.300781 80.59375 90.316406 80.84375 90.308594 81.09375 C 90.300781 81.394531 90.277344 81.695312 90.242188 81.988281 C 90.203125 82.292969 90.132812 82.589844 90.050781 82.882812 C 90.007812 83.027344 89.953125 83.167969 89.914062 83.3125 C 89.902344 83.367188 89.875 83.441406 89.867188 83.5 C 89.859375 83.589844 89.875 83.664062 89.855469 83.761719 C 89.855469 83.769531 89.867188 83.78125 89.875 83.773438 C 89.980469 83.644531 90.089844 83.570312 90.167969 83.421875 C 90.242188 83.285156 90.296875 83.140625 90.351562 83 C 90.472656 82.699219 90.570312 82.390625 90.660156 82.082031 C 90.753906 81.757812 90.839844 81.402344 90.886719 81.046875 C 90.953125 81.132812 91.023438 81.21875 91.089844 81.304688 C 90.925781 82.199219 90.691406 83.074219 90.402344 83.9375 C 89.808594 85.695312 88.847656 87.332031 87.621094 88.722656 C 86.996094 89.421875 86.300781 90.070312 85.539062 90.617188 C 85.167969 90.886719 84.777344 91.136719 84.375 91.363281 C 84.054688 91.546875 83.714844 91.695312 83.390625 91.875 C 83.246094 91.820312 83.105469 91.769531 82.960938 91.714844 C 83.625 91.453125 84.265625 91.039062 84.839844 90.652344 C 85.535156 90.179688 86.160156 89.628906 86.757812 89.03125 C 87.90625 87.871094 88.90625 86.417969 89.378906 84.839844 C 89.382812 84.828125 89.363281 84.820312 89.355469 84.832031 C 88.921875 85.53125 88.507812 86.257812 87.976562 86.890625 C 87.464844 87.5 86.949219 88.101562 86.371094 88.644531 C 85.789062 89.191406 85.136719 89.675781 84.46875 90.113281 C 84.128906 90.335938 83.78125 90.539062 83.421875 90.730469 C 83.0625 90.917969 82.679688 91.066406 82.332031 91.265625 C 82.257812 91.304688 82.214844 91.363281 82.195312 91.429688 C 81.222656 91.070312 80.253906 90.703125 79.285156 90.34375 Z M 68.441406 86.398438 C 68.640625 86.40625 68.839844 86.410156 69.039062 86.394531 C 70.113281 86.335938 71.152344 86.050781 72.140625 85.628906 C 73.984375 84.84375 75.605469 83.570312 77.023438 82.167969 C 78.34375 80.859375 79.496094 79.394531 80.410156 77.765625 C 81.277344 76.210938 81.976562 74.503906 82.246094 72.734375 C 82.371094 71.890625 82.402344 71.019531 82.261719 70.183594 C 82.589844 70.601562 82.917969 71.019531 83.242188 71.4375 C 83.914062 72.296875 84.589844 73.15625 85.261719 74.015625 C 85.304688 74.753906 85.324219 75.484375 85.285156 76.222656 C 85.242188 77.027344 85.113281 77.820312 84.945312 78.605469 C 84.941406 78.632812 84.980469 78.652344 84.992188 78.625 C 85.195312 78.242188 85.351562 77.890625 85.472656 77.472656 C 85.585938 77.078125 85.714844 76.691406 85.789062 76.289062 C 85.878906 75.824219 85.925781 75.34375 85.933594 74.867188 C 86 74.953125 86.070312 75.039062 86.136719 75.125 C 86.085938 76.378906 85.933594 77.609375 85.609375 78.839844 C 84.964844 81.277344 83.8125 83.539062 82.136719 85.433594 C 81.351562 86.320312 80.460938 87.132812 79.496094 87.820312 C 78.621094 88.441406 77.691406 88.945312 76.730469 89.410156 C 76.605469 89.363281 76.480469 89.316406 76.351562 89.273438 C 77.230469 88.847656 78.042969 88.253906 78.78125 87.644531 C 79.257812 87.246094 79.683594 86.789062 80.125 86.355469 C 80.550781 85.9375 81.023438 85.488281 81.324219 84.964844 C 81.34375 84.929688 81.296875 84.898438 81.269531 84.925781 C 80.804688 85.308594 80.414062 85.789062 79.960938 86.191406 C 79.503906 86.597656 78.988281 86.917969 78.472656 87.246094 C 77.453125 87.890625 76.351562 88.34375 75.269531 88.867188 C 75.265625 88.867188 75.265625 88.871094 75.265625 88.871094 C 72.988281 88.042969 70.714844 87.214844 68.441406 86.398438 Z M 65.800781 82.839844 C 65.84375 82.820312 65.886719 82.796875 65.929688 82.773438 C 65.972656 82.746094 66.007812 82.71875 66.046875 82.691406 C 66.386719 82.792969 66.753906 82.828125 67.105469 82.8125 C 67.484375 82.792969 67.890625 82.734375 68.242188 82.59375 C 68.542969 82.472656 68.824219 82.210938 68.785156 81.855469 C 68.757812 81.589844 68.414062 81.28125 68.148438 81.472656 C 68.105469 81.503906 68.089844 81.566406 68.101562 81.617188 C 68.101562 81.648438 68.101562 81.679688 68.101562 81.691406 C 68.074219 81.789062 68.003906 81.863281 67.921875 81.921875 C 67.753906 82.042969 67.550781 82.117188 67.355469 82.183594 C 67.148438 82.257812 66.929688 82.308594 66.710938 82.328125 C 66.617188 82.335938 66.523438 82.335938 66.433594 82.335938 C 66.53125 82.214844 66.613281 82.082031 66.667969 81.933594 C 66.734375 81.746094 66.765625 81.550781 66.730469 81.355469 C 66.714844 81.269531 66.683594 81.132812 66.617188 81.046875 C 66.617188 81.007812 66.597656 80.964844 66.546875 80.945312 C 66.417969 80.890625 66.277344 80.859375 66.140625 80.824219 C 66.460938 79.617188 66.953125 78.441406 67.523438 77.347656 C 68.304688 75.84375 69.265625 74.472656 70.382812 73.210938 C 70.707031 73.375 71.054688 73.492188 71.433594 73.546875 C 71.550781 73.5625 71.667969 73.570312 71.78125 73.578125 C 72.492188 74.5 73.589844 75.210938 74.691406 75.550781 C 75.238281 75.71875 75.964844 75.699219 76.269531 75.117188 C 76.472656 74.726562 76.292969 74.042969 75.773438 74.035156 C 75.695312 74.03125 75.636719 74.085938 75.617188 74.148438 C 75.554688 74.207031 75.511719 74.289062 75.433594 74.332031 C 75.269531 74.421875 75.078125 74.421875 74.898438 74.40625 C 74.558594 74.378906 74.21875 74.28125 73.894531 74.171875 C 73.566406 74.0625 73.246094 73.910156 72.949219 73.726562 C 72.832031 73.65625 72.71875 73.570312 72.605469 73.488281 C 72.886719 73.417969 73.152344 73.300781 73.394531 73.132812 C 73.648438 72.949219 73.871094 72.726562 74.003906 72.4375 C 74.070312 72.304688 74.148438 72.113281 74.140625 71.945312 C 74.179688 71.898438 74.191406 71.832031 74.15625 71.769531 C 74.039062 71.566406 73.863281 71.378906 73.714844 71.203125 C 73.566406 71.023438 73.410156 70.851562 73.25 70.679688 C 73.214844 70.644531 73.179688 70.609375 73.140625 70.574219 C 75.375 68.824219 78.042969 67.667969 80.890625 68.484375 C 80.898438 68.515625 80.910156 68.542969 80.925781 68.574219 C 81.769531 69.980469 81.726562 71.738281 81.378906 73.289062 C 80.621094 76.683594 78.558594 79.714844 76.050781 82.066406 C 74.6875 83.347656 73.117188 84.5 71.355469 85.160156 C 70.515625 85.476562 69.644531 85.667969 68.746094 85.707031 C 68.296875 85.726562 67.847656 85.703125 67.402344 85.636719 C 67.015625 85.582031 66.6875 85.496094 66.316406 85.546875 C 66.160156 85.269531 66.035156 84.96875 65.953125 84.660156 C 65.800781 84.074219 65.765625 83.453125 65.800781 82.839844 Z M 68.238281 81.6875 C 68.34375 81.679688 68.4375 81.691406 68.496094 81.800781 C 68.554688 81.910156 68.503906 82.039062 68.441406 82.132812 C 68.289062 82.363281 67.984375 82.429688 67.734375 82.492188 C 67.222656 82.625 66.710938 82.65625 66.191406 82.589844 C 66.210938 82.574219 66.222656 82.558594 66.238281 82.546875 C 66.289062 82.550781 66.339844 82.550781 66.386719 82.558594 C 66.503906 82.566406 66.625 82.566406 66.742188 82.554688 C 66.980469 82.539062 67.222656 82.492188 67.453125 82.414062 C 67.664062 82.34375 67.898438 82.238281 68.066406 82.089844 C 68.183594 81.988281 68.261719 81.832031 68.238281 81.6875 Z M 63.542969 82.527344 C 63.582031 82.472656 63.617188 82.414062 63.648438 82.351562 C 64.035156 82.433594 64.425781 82.417969 64.792969 82.257812 C 65.132812 82.113281 65.464844 81.84375 65.550781 81.464844 C 65.59375 81.265625 65.550781 81.042969 65.433594 80.878906 C 65.519531 80.898438 65.601562 80.917969 65.6875 80.9375 C 65.816406 80.96875 65.945312 81 66.074219 81.035156 C 66.214844 81.070312 66.347656 81.121094 66.488281 81.148438 C 66.503906 81.152344 66.515625 81.152344 66.527344 81.152344 C 66.527344 81.152344 66.53125 81.15625 66.53125 81.160156 C 66.546875 81.242188 66.550781 81.324219 66.542969 81.402344 C 66.523438 81.582031 66.464844 81.757812 66.375 81.914062 C 66.210938 82.195312 65.972656 82.421875 65.6875 82.578125 C 65.007812 82.945312 64.238281 82.769531 63.542969 82.527344 Z M 59.871094 82.605469 C 60.171875 82.773438 60.5 82.882812 60.863281 82.898438 C 61.597656 82.925781 62.269531 82.535156 62.554688 81.84375 C 62.765625 81.332031 62.710938 80.648438 62.320312 80.238281 C 62.648438 80.316406 62.976562 80.402344 63.289062 80.539062 C 63.378906 80.578125 63.445312 80.519531 63.464844 80.453125 C 63.574219 80.738281 63.660156 80.992188 63.652344 81.3125 C 63.640625 81.644531 63.546875 81.988281 63.375 82.273438 C 63.023438 82.84375 62.382812 83.210938 61.71875 83.257812 C 61 83.316406 60.367188 83.046875 59.871094 82.605469 Z M 75.230469 64.03125 C 75.394531 63.796875 75.316406 63.34375 74.976562 63.320312 C 74.917969 63.3125 74.878906 63.351562 74.871094 63.398438 C 74.851562 63.417969 74.835938 63.4375 74.828125 63.445312 C 74.730469 63.515625 74.609375 63.523438 74.492188 63.507812 C 74.285156 63.484375 74.074219 63.402344 73.878906 63.320312 C 73.683594 63.242188 73.5 63.132812 73.328125 63.011719 C 73.261719 62.964844 73.199219 62.910156 73.140625 62.855469 C 73.296875 62.828125 73.449219 62.769531 73.589844 62.691406 C 73.753906 62.59375 73.902344 62.46875 74 62.304688 C 74.046875 62.230469 74.105469 62.113281 74.113281 62.007812 C 74.148438 61.972656 74.152344 61.925781 74.132812 61.882812 C 74.074219 61.757812 73.976562 61.636719 73.898438 61.523438 C 73.816406 61.410156 73.734375 61.300781 73.644531 61.191406 C 73.554688 61.082031 73.460938 60.976562 73.355469 60.878906 C 73.335938 60.859375 73.3125 60.84375 73.289062 60.824219 C 73.265625 60.757812 73.226562 60.699219 73.171875 60.644531 C 72.90625 60.390625 72.472656 60.441406 72.160156 60.570312 C 71.847656 60.699219 71.570312 60.972656 71.605469 61.320312 C 71.421875 61.246094 71.257812 61.140625 71.121094 61 C 71.25 60.9375 71.378906 60.859375 71.5 60.765625 C 71.871094 60.46875 72.21875 59.917969 72.1875 59.421875 C 72.1875 59.40625 72.171875 59.398438 72.164062 59.398438 C 72.164062 59.378906 72.160156 59.359375 72.144531 59.339844 C 71.960938 59.082031 71.789062 58.820312 71.597656 58.574219 C 71.5 58.441406 71.398438 58.3125 71.292969 58.183594 C 71.121094 57.828125 70.492188 57.441406 70.152344 57.777344 C 70 57.835938 69.851562 57.941406 69.742188 58.050781 C 69.585938 58.203125 69.464844 58.398438 69.402344 58.605469 C 69.296875 58.984375 69.386719 59.453125 69.648438 59.757812 C 69.40625 59.738281 69.164062 59.65625 68.957031 59.507812 C 68.292969 59.035156 68.113281 58.179688 68.242188 57.414062 C 68.382812 56.617188 68.816406 55.863281 69.238281 55.183594 C 69.324219 55.050781 69.121094 54.9375 69.03125 55.0625 C 68.589844 55.664062 68.179688 56.277344 67.976562 56.980469 C 67.746094 57.535156 67.621094 58.144531 67.691406 58.742188 C 67.832031 59.933594 68.703125 61.019531 69.925781 61.179688 C 70.171875 61.210938 70.421875 61.203125 70.660156 61.152344 C 70.96875 61.921875 71.519531 62.625 72.359375 62.832031 C 72.441406 62.851562 72.527344 62.867188 72.609375 62.875 C 72.988281 63.464844 73.609375 63.941406 74.25 64.199219 C 74.578125 64.332031 75.007812 64.355469 75.230469 64.03125 Z M 71 58.132812 C 71.109375 58.28125 71.144531 58.453125 71.132812 58.625 C 71.082031 58.589844 71.019531 58.5625 70.957031 58.550781 C 70.644531 58.476562 70.324219 58.675781 70.179688 58.953125 C 70.101562 59.101562 70.074219 59.273438 70.097656 59.4375 C 70.109375 59.539062 70.140625 59.628906 70.183594 59.710938 C 70.105469 59.734375 70.027344 59.75 69.949219 59.761719 C 69.945312 59.75 69.941406 59.742188 69.933594 59.738281 C 69.667969 59.433594 69.519531 59.058594 69.613281 58.652344 C 69.65625 58.464844 69.75 58.289062 69.878906 58.148438 C 70.007812 58.007812 70.15625 57.925781 70.320312 57.839844 C 70.582031 57.828125 70.820312 57.894531 71 58.132812 Z M 70.515625 58.953125 C 70.609375 58.855469 70.734375 58.777344 70.871094 58.746094 C 70.949219 58.726562 71.035156 58.742188 71.105469 58.777344 C 71.074219 58.917969 71.011719 59.058594 70.929688 59.175781 C 70.789062 59.382812 70.597656 59.53125 70.386719 59.628906 C 70.304688 59.398438 70.339844 59.136719 70.515625 58.953125 Z M 70.914062 60.789062 C 70.292969 61.007812 69.589844 60.894531 69.042969 60.535156 C 68.417969 60.121094 68.09375 59.480469 67.996094 58.789062 C 68.125 59.140625 68.332031 59.460938 68.628906 59.710938 C 69.195312 60.175781 69.953125 60.28125 70.597656 59.90625 C 71.046875 59.644531 71.417969 59.113281 71.394531 58.582031 C 71.414062 58.613281 71.441406 58.640625 71.460938 58.671875 C 71.628906 58.925781 71.800781 59.1875 71.9375 59.460938 C 71.972656 59.539062 72.054688 59.535156 72.109375 59.496094 C 72.003906 59.792969 71.898438 60.050781 71.667969 60.289062 C 71.464844 60.503906 71.199219 60.6875 70.914062 60.789062 Z M 72.578125 61.472656 C 72.324219 61.542969 72.058594 61.476562 71.8125 61.398438 C 71.800781 61.078125 72.179688 60.878906 72.445312 60.816406 C 72.609375 60.777344 72.929688 60.757812 72.992188 60.972656 C 73.066406 61.222656 72.78125 61.417969 72.578125 61.472656 Z M 73.320312 62.515625 C 73.164062 62.566406 73.003906 62.585938 72.839844 62.59375 C 72.820312 62.582031 72.796875 62.585938 72.78125 62.59375 C 72.613281 62.589844 72.445312 62.566406 72.285156 62.515625 C 71.601562 62.308594 71.167969 61.707031 70.824219 61.113281 C 70.890625 61.09375 70.957031 61.070312 71.015625 61.046875 C 71.238281 61.339844 71.527344 61.582031 71.875 61.703125 C 72.253906 61.835938 72.71875 61.867188 73.050781 61.605469 C 73.207031 61.484375 73.308594 61.292969 73.328125 61.097656 C 73.382812 61.167969 73.433594 61.242188 73.488281 61.3125 C 73.570312 61.429688 73.652344 61.542969 73.734375 61.660156 C 73.8125 61.777344 73.878906 61.902344 73.964844 62.007812 C 73.96875 62.011719 73.976562 62.015625 73.980469 62.019531 C 73.972656 62.03125 73.96875 62.042969 73.960938 62.058594 C 73.917969 62.128906 73.863281 62.1875 73.800781 62.246094 C 73.660156 62.371094 73.5 62.460938 73.320312 62.515625 Z M 74.78125 64.015625 C 74.496094 64.085938 74.1875 63.910156 73.945312 63.785156 C 73.5 63.554688 73.121094 63.253906 72.789062 62.886719 C 72.8125 62.886719 72.832031 62.886719 72.855469 62.886719 C 72.894531 62.925781 72.933594 62.964844 72.96875 63 C 73.050781 63.078125 73.136719 63.148438 73.226562 63.21875 C 73.414062 63.359375 73.617188 63.476562 73.832031 63.566406 C 74.042969 63.65625 74.304688 63.738281 74.535156 63.738281 C 74.691406 63.734375 74.851562 63.667969 74.925781 63.539062 C 75.15625 63.707031 75.03125 63.953125 74.78125 64.015625 Z M 100.84375 97.628906 C 100.917969 97.527344 101.015625 97.441406 101.105469 97.355469 C 101.28125 97.183594 101.4375 96.992188 101.578125 96.789062 C 101.714844 96.582031 101.816406 96.359375 101.929688 96.140625 C 102.039062 95.917969 102.09375 95.648438 102.136719 95.40625 C 102.144531 95.371094 102.191406 95.382812 102.195312 95.414062 C 102.222656 95.957031 102.078125 96.5 101.804688 96.96875 C 101.667969 97.203125 101.5 97.421875 101.300781 97.609375 C 101.210938 97.699219 101.089844 97.800781 100.964844 97.839844 C 100.839844 97.878906 100.726562 97.929688 100.605469 97.984375 C 100.554688 98.007812 100.515625 97.945312 100.5625 97.914062 C 100.679688 97.828125 100.757812 97.742188 100.84375 97.628906 Z M 57.703125 72.878906 C 57.652344 73.074219 57.582031 73.269531 57.601562 73.472656 C 57.628906 73.832031 57.898438 74.128906 58.222656 74.261719 C 58.230469 74.265625 58.238281 74.261719 58.246094 74.261719 C 58.261719 74.28125 58.292969 74.292969 58.320312 74.289062 C 58.371094 74.28125 58.40625 74.269531 58.449219 74.242188 C 58.488281 74.222656 58.527344 74.199219 58.566406 74.179688 C 58.640625 74.144531 58.714844 74.113281 58.792969 74.085938 C 58.875 74.058594 58.953125 74.035156 59.035156 74.015625 C 59.058594 74.011719 59.082031 74.007812 59.105469 74 C 59.125 74.015625 59.144531 74.035156 59.164062 74.046875 C 59.308594 74.140625 59.453125 73.9375 59.339844 73.816406 C 59.222656 73.695312 59.179688 73.5 59.171875 73.335938 C 59.15625 73.105469 59.214844 72.882812 59.222656 72.652344 C 59.234375 72.441406 59.203125 72.226562 59.105469 72.039062 C 59.039062 71.917969 58.941406 71.796875 58.8125 71.738281 C 58.816406 71.734375 58.816406 71.734375 58.816406 71.734375 C 58.863281 71.667969 58.785156 71.601562 58.726562 71.613281 C 58.636719 71.628906 58.554688 71.679688 58.476562 71.722656 C 58.398438 71.765625 58.320312 71.808594 58.246094 71.851562 C 58.09375 71.941406 57.9375 72.027344 57.785156 72.117188 C 57.726562 72.148438 57.707031 72.210938 57.714844 72.269531 C 57.671875 72.3125 57.652344 72.386719 57.703125 72.433594 C 57.753906 72.480469 57.785156 72.550781 57.773438 72.625 C 57.765625 72.660156 57.746094 72.695312 57.738281 72.734375 C 57.730469 72.777344 57.714844 72.828125 57.703125 72.878906 Z M 58.007812 73.28125 C 58.050781 73.085938 58.171875 72.851562 58.097656 72.65625 C 58.054688 72.546875 58.011719 72.449219 57.949219 72.363281 C 58.09375 72.265625 58.242188 72.164062 58.386719 72.066406 C 58.464844 72.015625 58.539062 71.964844 58.613281 71.910156 C 58.621094 71.90625 58.625 71.902344 58.628906 71.898438 C 58.777344 72.007812 58.863281 72.132812 58.890625 72.316406 C 58.921875 72.523438 58.871094 72.746094 58.839844 72.949219 C 58.792969 73.273438 58.789062 73.617188 58.980469 73.871094 C 58.894531 73.882812 58.8125 73.898438 58.734375 73.921875 C 58.640625 73.949219 58.554688 73.984375 58.464844 74.023438 C 58.421875 74.042969 58.378906 74.066406 58.335938 74.085938 C 58.3125 74.097656 58.292969 74.113281 58.28125 74.132812 C 58.046875 73.929688 57.945312 73.582031 58.007812 73.28125 Z M 66.203125 74.179688 C 65.921875 73.976562 65.667969 73.746094 65.421875 73.496094 C 65.609375 73.25 65.738281 72.976562 65.804688 72.667969 C 65.824219 72.574219 65.742188 72.472656 65.640625 72.503906 C 65.261719 72.628906 64.890625 72.726562 64.488281 72.664062 C 64.152344 72.613281 63.851562 72.550781 63.609375 72.300781 C 63.578125 72.261719 63.550781 72.226562 63.511719 72.191406 C 63.394531 72.074219 63.214844 72.253906 63.328125 72.371094 C 63.902344 72.957031 63.074219 73.84375 62.675781 74.261719 C 62.582031 74.359375 62.675781 74.496094 62.796875 74.472656 C 63.132812 74.414062 63.472656 74.351562 63.808594 74.289062 C 63.890625 74.703125 64.015625 75.101562 64.183594 75.492188 C 64.222656 75.582031 64.367188 75.570312 64.410156 75.492188 C 64.523438 75.265625 64.542969 75.027344 64.582031 74.78125 C 64.621094 74.570312 64.683594 74.289062 64.921875 74.230469 C 65.132812 74.179688 65.371094 74.285156 65.570312 74.34375 C 65.765625 74.402344 65.960938 74.445312 66.171875 74.414062 C 66.292969 74.394531 66.28125 74.238281 66.203125 74.179688 Z M 65.484375 72.828125 C 65.414062 73.042969 65.304688 73.242188 65.15625 73.417969 C 65.109375 73.472656 65.105469 73.550781 65.15625 73.601562 C 65.339844 73.796875 65.539062 73.96875 65.746094 74.136719 C 65.414062 74.058594 65.085938 73.875 64.753906 74.035156 C 64.371094 74.214844 64.363281 74.652344 64.289062 75.035156 C 64.179688 74.734375 64.09375 74.421875 64.039062 74.105469 C 64.027344 74.035156 63.941406 74.003906 63.878906 74.015625 C 63.621094 74.0625 63.367188 74.113281 63.113281 74.15625 C 63.484375 73.726562 63.882812 73.152344 63.765625 72.632812 C 63.957031 72.769531 64.183594 72.863281 64.398438 72.90625 C 64.773438 72.980469 65.128906 72.925781 65.484375 72.828125 Z M 62.464844 77.625 C 62.230469 77.769531 61.9375 77.816406 61.679688 77.695312 C 61.394531 77.558594 61.242188 77.242188 61.261719 76.933594 C 61.269531 76.765625 61.328125 76.609375 61.433594 76.476562 C 61.476562 76.417969 61.535156 76.363281 61.597656 76.328125 C 61.695312 76.269531 61.773438 76.242188 61.878906 76.222656 C 62.027344 76.191406 62.1875 76.222656 62.328125 76.28125 C 62.457031 76.335938 62.589844 76.441406 62.660156 76.566406 C 62.71875 76.664062 62.753906 76.773438 62.761719 76.886719 C 62.773438 76.917969 62.785156 76.949219 62.789062 76.980469 C 62.824219 77.238281 62.675781 77.492188 62.464844 77.625 Z M 67.027344 63.496094 C 66.796875 63.640625 66.5 63.6875 66.246094 63.566406 C 65.957031 63.429688 65.808594 63.117188 65.824219 62.804688 C 65.835938 62.636719 65.894531 62.484375 65.996094 62.347656 C 66.039062 62.289062 66.101562 62.234375 66.164062 62.199219 C 66.257812 62.140625 66.339844 62.117188 66.445312 62.09375 C 66.59375 62.0625 66.753906 62.097656 66.890625 62.152344 C 67.023438 62.207031 67.15625 62.3125 67.226562 62.4375 C 67.28125 62.535156 67.320312 62.644531 67.328125 62.757812 C 67.335938 62.789062 67.347656 62.824219 67.355469 62.855469 C 67.386719 63.109375 67.242188 63.367188 67.027344 63.496094 Z M 59.355469 66.949219 C 59.066406 66.808594 58.914062 66.496094 58.933594 66.183594 C 58.941406 66.015625 59 65.863281 59.105469 65.726562 C 59.148438 65.667969 59.210938 65.613281 59.269531 65.578125 C 59.367188 65.519531 59.445312 65.496094 59.550781 65.472656 C 59.699219 65.445312 59.859375 65.476562 60 65.53125 C 60.132812 65.585938 60.261719 65.691406 60.335938 65.816406 C 60.390625 65.914062 60.425781 66.027344 60.433594 66.136719 C 60.445312 66.167969 60.457031 66.203125 60.460938 66.234375 C 60.492188 66.488281 60.347656 66.742188 60.132812 66.875 C 59.902344 67.019531 59.605469 67.066406 59.355469 66.949219 Z M 50.980469 78.207031 C 51.535156 78.105469 51.929688 78.597656 52.160156 79.039062 C 52.398438 79.5 52.507812 80.007812 52.621094 80.511719 C 52.648438 80.644531 52.824219 80.617188 52.863281 80.511719 C 53.046875 80.0625 53.226562 79.609375 53.410156 79.160156 C 53.921875 79.394531 54.449219 79.570312 54.992188 79.6875 C 55.105469 79.710938 55.195312 79.597656 55.144531 79.492188 C 54.992188 79.207031 54.75 78.996094 54.523438 78.773438 C 54.265625 78.511719 53.976562 78.152344 54.183594 77.777344 C 54.4375 77.3125 55.007812 77.105469 55.230469 76.609375 C 55.269531 76.523438 55.203125 76.378906 55.085938 76.425781 C 54.636719 76.597656 54.175781 76.71875 53.707031 76.804688 C 53.574219 76.386719 53.355469 76.007812 53.058594 75.675781 C 52.992188 75.601562 52.863281 75.640625 52.835938 75.734375 C 52.710938 76.230469 52.566406 76.710938 52.238281 77.113281 C 51.925781 77.5 51.585938 77.859375 51.066406 77.921875 C 51.046875 77.925781 51.03125 77.9375 51.019531 77.949219 C 50.984375 77.957031 50.949219 77.957031 50.910156 77.960938 C 50.75 77.992188 50.820312 78.238281 50.980469 78.207031 Z M 51.445312 77.976562 C 51.804688 77.863281 52.136719 77.617188 52.371094 77.34375 C 52.703125 76.960938 52.882812 76.523438 53.023438 76.054688 C 53.238281 76.335938 53.398438 76.640625 53.492188 76.992188 C 53.511719 77.066406 53.585938 77.097656 53.652344 77.085938 C 54.042969 77.019531 54.421875 76.921875 54.792969 76.800781 C 54.484375 77.140625 54.03125 77.375 53.894531 77.832031 C 53.707031 78.476562 54.328125 78.898438 54.714844 79.351562 C 54.265625 79.234375 53.828125 79.082031 53.40625 78.878906 C 53.324219 78.839844 53.246094 78.875 53.214844 78.957031 C 53.070312 79.324219 52.921875 79.691406 52.773438 80.058594 C 52.582031 79.25 52.222656 78.191406 51.445312 77.976562 Z M 55.769531 66.960938 C 55.828125 66.921875 55.875 66.910156 55.941406 66.894531 C 56.035156 66.875 56.132812 66.894531 56.21875 66.933594 C 56.300781 66.96875 56.382812 67.03125 56.425781 67.109375 C 56.460938 67.167969 56.484375 67.234375 56.488281 67.308594 C 56.492188 67.328125 56.5 67.347656 56.503906 67.367188 C 56.523438 67.523438 56.433594 67.679688 56.300781 67.761719 C 56.15625 67.851562 55.972656 67.878906 55.816406 67.804688 C 55.640625 67.71875 55.546875 67.527344 55.558594 67.332031 C 55.5625 67.230469 55.601562 67.132812 55.664062 67.050781 C 55.695312 67.015625 55.730469 66.984375 55.769531 66.960938 Z M 49.292969 71.910156 C 49.269531 71.992188 49.285156 72.070312 49.292969 72.152344 C 49.300781 72.230469 49.308594 72.308594 49.320312 72.386719 C 49.339844 72.542969 49.359375 72.699219 49.378906 72.855469 C 49.386719 72.941406 49.445312 73.003906 49.527344 73 C 49.542969 73.046875 49.585938 73.078125 49.652344 73.0625 C 49.925781 72.992188 50.164062 73.125 50.410156 73.238281 C 50.640625 73.34375 50.859375 73.460938 51.109375 73.507812 C 51.566406 73.597656 52.070312 73.472656 52.472656 73.242188 C 52.488281 73.234375 52.496094 73.222656 52.503906 73.207031 C 52.535156 73.210938 52.566406 73.199219 52.582031 73.160156 C 52.585938 73.144531 52.59375 73.125 52.59375 73.109375 C 52.601562 73.085938 52.59375 73.066406 52.59375 73.039062 C 52.585938 73 52.585938 72.960938 52.585938 72.921875 C 52.585938 72.851562 52.59375 72.777344 52.605469 72.703125 C 52.625 72.625 52.652344 72.550781 52.679688 72.476562 C 52.691406 72.453125 52.699219 72.433594 52.710938 72.414062 C 52.730469 72.40625 52.75 72.402344 52.773438 72.394531 C 52.945312 72.328125 52.882812 72.074219 52.695312 72.113281 C 52.078125 72.253906 51.507812 71.988281 50.929688 71.824219 C 50.488281 71.699219 49.855469 71.632812 49.453125 71.917969 C 49.449219 71.910156 49.445312 71.898438 49.441406 71.890625 C 49.402344 71.835938 49.3125 71.839844 49.292969 71.910156 Z M 49.667969 72.832031 C 49.667969 72.828125 49.667969 72.824219 49.667969 72.816406 C 49.636719 72.660156 49.605469 72.507812 49.570312 72.351562 C 49.554688 72.277344 49.539062 72.203125 49.523438 72.128906 C 50.078125 71.933594 50.578125 72.066406 51.113281 72.257812 C 51.566406 72.421875 52.042969 72.570312 52.515625 72.472656 C 52.484375 72.535156 52.460938 72.597656 52.445312 72.660156 C 52.417969 72.746094 52.40625 72.835938 52.402344 72.925781 C 52.398438 72.96875 52.398438 73.007812 52.402344 73.050781 C 52.40625 73.074219 52.40625 73.09375 52.410156 73.113281 C 51.980469 73.25 51.464844 73.21875 51.03125 73.082031 C 50.785156 73.003906 50.570312 72.84375 50.3125 72.789062 C 50.195312 72.765625 50.0625 72.777344 49.941406 72.785156 C 49.851562 72.789062 49.757812 72.804688 49.667969 72.832031 Z M 45.257812 76.035156 C 45.300781 75.976562 45.363281 75.921875 45.421875 75.882812 C 45.519531 75.824219 45.601562 75.800781 45.703125 75.777344 C 45.855469 75.75 46.011719 75.78125 46.152344 75.839844 C 46.285156 75.890625 46.417969 76 46.488281 76.125 C 46.542969 76.222656 46.582031 76.332031 46.585938 76.445312 C 46.597656 76.476562 46.609375 76.507812 46.613281 76.539062 C 46.644531 76.792969 46.5 77.046875 46.285156 77.179688 C 46.054688 77.324219 45.757812 77.371094 45.503906 77.25 C 45.214844 77.113281 45.066406 76.800781 45.082031 76.488281 C 45.097656 76.320312 45.152344 76.164062 45.257812 76.035156 Z M 49.246094 64.730469 C 49.234375 64.863281 49.253906 65 49.265625 65.128906 C 49.273438 65.261719 49.289062 65.386719 49.304688 65.515625 C 49.332031 65.78125 49.359375 66.042969 49.386719 66.308594 C 49.398438 66.402344 49.464844 66.445312 49.53125 66.445312 C 49.507812 66.523438 49.597656 66.617188 49.691406 66.574219 C 49.980469 66.453125 50.253906 66.738281 50.457031 66.90625 C 50.671875 67.082031 50.875 67.261719 51.136719 67.359375 C 51.605469 67.53125 52.15625 67.375 52.527344 67.0625 C 52.542969 67.050781 52.546875 67.03125 52.546875 67.019531 C 52.582031 67.019531 52.613281 67 52.613281 66.96875 C 52.625 66.90625 52.628906 66.847656 52.621094 66.785156 C 52.613281 66.71875 52.609375 66.652344 52.605469 66.589844 C 52.601562 66.457031 52.605469 66.328125 52.617188 66.199219 C 52.628906 66.066406 52.652344 65.9375 52.679688 65.808594 C 52.691406 65.746094 52.710938 65.679688 52.726562 65.621094 C 52.746094 65.609375 52.769531 65.597656 52.792969 65.582031 C 52.933594 65.503906 52.835938 65.253906 52.679688 65.316406 C 52.011719 65.582031 51.425781 65.003906 50.867188 64.730469 C 50.4375 64.523438 49.796875 64.390625 49.417969 64.765625 C 49.414062 64.746094 49.410156 64.726562 49.402344 64.707031 C 49.375 64.621094 49.261719 64.636719 49.246094 64.730469 Z M 49.496094 65.101562 C 49.488281 65.066406 49.484375 65.035156 49.476562 65 C 49.484375 65 49.492188 64.996094 49.5 64.992188 C 50.0625 64.613281 50.613281 64.957031 51.109375 65.28125 C 51.542969 65.5625 52.054688 65.832031 52.558594 65.6875 C 52.550781 65.710938 52.542969 65.738281 52.535156 65.765625 C 52.496094 65.898438 52.46875 66.035156 52.453125 66.167969 C 52.4375 66.308594 52.425781 66.449219 52.425781 66.589844 C 52.425781 66.652344 52.429688 66.71875 52.433594 66.785156 C 52.4375 66.84375 52.449219 66.890625 52.46875 66.941406 C 52.460938 66.941406 52.449219 66.941406 52.4375 66.949219 C 51.992188 67.199219 51.414062 67.136719 51 66.839844 C 50.777344 66.679688 50.585938 66.4375 50.320312 66.351562 C 50.109375 66.289062 49.875 66.28125 49.667969 66.359375 C 49.679688 66.332031 49.683594 66.304688 49.679688 66.269531 C 49.640625 66.007812 49.597656 65.746094 49.558594 65.488281 C 49.535156 65.355469 49.515625 65.226562 49.496094 65.101562 Z M 71.035156 78.171875 C 70.945312 78.269531 71.039062 78.40625 71.160156 78.386719 C 71.496094 78.324219 71.832031 78.261719 72.171875 78.203125 C 72.253906 78.617188 72.378906 79.015625 72.546875 79.402344 C 72.585938 79.492188 72.730469 79.484375 72.773438 79.402344 C 72.886719 79.179688 72.90625 78.9375 72.945312 78.695312 C 72.984375 78.484375 73.046875 78.199219 73.285156 78.140625 C 73.492188 78.09375 73.734375 78.199219 73.929688 78.257812 C 74.128906 78.316406 74.324219 78.355469 74.53125 78.328125 C 74.652344 78.308594 74.636719 78.152344 74.5625 78.09375 C 74.28125 77.890625 74.023438 77.660156 73.78125 77.414062 C 73.964844 77.164062 74.09375 76.890625 74.160156 76.582031 C 74.179688 76.492188 74.101562 76.386719 73.996094 76.417969 C 73.617188 76.542969 73.246094 76.640625 72.847656 76.578125 C 72.511719 76.527344 72.210938 76.464844 71.964844 76.21875 C 71.9375 76.179688 71.90625 76.140625 71.867188 76.105469 C 71.75 75.988281 71.570312 76.167969 71.6875 76.285156 C 72.265625 76.871094 71.433594 77.757812 71.035156 78.171875 Z M 72.238281 77.929688 C 71.984375 77.976562 71.726562 78.023438 71.472656 78.070312 C 71.847656 77.640625 72.246094 77.0625 72.125 76.542969 C 72.316406 76.679688 72.546875 76.773438 72.761719 76.820312 C 73.132812 76.894531 73.488281 76.839844 73.84375 76.742188 C 73.773438 76.957031 73.664062 77.15625 73.515625 77.332031 C 73.46875 77.386719 73.464844 77.464844 73.515625 77.519531 C 73.699219 77.710938 73.898438 77.882812 74.105469 78.054688 C 73.773438 77.972656 73.445312 77.792969 73.113281 77.949219 C 72.730469 78.128906 72.722656 78.566406 72.648438 78.949219 C 72.539062 78.648438 72.453125 78.335938 72.398438 78.019531 C 72.382812 77.945312 72.304688 77.917969 72.238281 77.929688 Z M 61.390625 55.488281 C 61.394531 55.386719 61.433594 55.289062 61.496094 55.207031 C 61.523438 55.171875 61.558594 55.140625 61.597656 55.117188 C 61.65625 55.078125 61.707031 55.0625 61.773438 55.050781 C 61.863281 55.03125 61.960938 55.050781 62.046875 55.089844 C 62.128906 55.121094 62.210938 55.1875 62.257812 55.265625 C 62.289062 55.324219 62.3125 55.390625 62.316406 55.460938 C 62.320312 55.480469 62.328125 55.5 62.332031 55.519531 C 62.351562 55.679688 62.261719 55.835938 62.128906 55.917969 C 61.984375 56.003906 61.800781 56.035156 61.644531 55.960938 C 61.472656 55.875 61.378906 55.679688 61.390625 55.488281 Z M 61.390625 55.488281 " fill-opacity="1" fill-rule="nonzero"/></g></svg>