<svg xmlns="http://www.w3.org/2000/svg" xmlns:xlink="http://www.w3.org/1999/xlink" width="200" zoomAndPan="magnify" viewBox="0 0 150 149.999998" height="200" preserveAspectRatio="xMidYMid meet" version="1.0"><defs><clipPath id="80ad6238c5"><path d="M 46 45.109375 L 104 45.109375 L 104 104.359375 L 46 104.359375 Z M 46 45.109375 " clip-rule="nonzero"/></clipPath></defs><g clip-path="url(#80ad6238c5)"><path fill="#ff5757" d="M 99.425781 65.179688 L 102.578125 61.210938 C 104.707031 58.53125 103.542969 54.046875 99.957031 51.203125 L 99.300781 50.6875 C 99.507812 50.433594 99.632812 50.101562 99.632812 49.753906 C 99.632812 49.238281 99.371094 48.789062 98.980469 48.511719 C 98.738281 48.339844 98.4375 48.25 98.117188 48.25 C 97.632812 48.25 97.207031 48.480469 96.929688 48.835938 C 93.398438 46.191406 88.949219 46.121094 86.867188 48.742188 L 83.714844 52.710938 L 88.648438 56.632812 L 88.179688 57.265625 C 84.3125 54.851562 79.738281 53.449219 74.847656 53.449219 C 73.929688 53.449219 73.019531 53.492188 72.132812 53.597656 L 69.59375 49.375 L 70.765625 48.894531 C 71.304688 48.675781 71.558594 48.054688 71.328125 47.511719 L 70.246094 45.902344 C 70.027344 45.363281 69.410156 45.109375 68.867188 45.339844 L 64.636719 47.085938 C 64.09375 47.304688 63.839844 47.925781 64.070312 48.46875 L 65.152344 50.078125 C 65.371094 50.617188 65.992188 50.871094 66.53125 50.640625 L 67.855469 50.089844 L 70.144531 53.875 C 67.085938 54.449219 64.210938 55.585938 61.65625 57.164062 L 61.09375 56.484375 L 65.910156 52.46875 L 62.667969 48.582031 C 60.507812 45.984375 55.953125 46.191406 52.453125 49.03125 C 52.214844 48.675781 51.832031 48.421875 51.410156 48.363281 C 50.996094 48.304688 50.601562 48.421875 50.304688 48.652344 C 49.867188 48.972656 49.601562 49.539062 49.71875 50.136719 C 49.773438 50.445312 49.9375 50.734375 50.15625 50.941406 L 49.660156 51.34375 C 46.140625 54.277344 45.070312 58.785156 47.269531 61.417969 L 50.511719 65.304688 L 55.570312 61.085938 L 56.136719 61.761719 C 52.109375 66.226562 49.660156 72.136719 49.660156 78.613281 C 49.660156 85.835938 52.695312 92.34375 57.5625 96.933594 L 56.824219 97.980469 L 54.972656 100.625 C 54.480469 101.328125 54.652344 102.292969 55.351562 102.777344 L 56.78125 103.777344 C 57.480469 104.273438 58.449219 104.101562 58.929688 103.398438 L 61.378906 99.902344 C 65.277344 102.375 69.890625 103.800781 74.847656 103.800781 C 79.726562 103.800781 84.269531 102.410156 88.132812 100.015625 L 88.984375 101.226562 L 90.777344 103.789062 C 91.273438 104.492188 92.226562 104.664062 92.929688 104.167969 L 94.355469 103.167969 C 95.054688 102.675781 95.230469 101.71875 94.734375 101.019531 L 92.722656 98.152344 L 91.984375 97.105469 C 96.941406 92.507812 100.046875 85.9375 100.046875 78.636719 C 100.046875 72.21875 97.644531 66.351562 93.6875 61.914062 L 94.285156 61.109375 Z M 96.667969 78.625 C 96.667969 84.445312 94.402344 89.917969 90.285156 94.035156 C 86.164062 98.152344 80.691406 100.417969 74.871094 100.417969 C 74.859375 100.417969 74.847656 100.417969 74.824219 100.417969 C 69.015625 100.410156 63.554688 98.140625 59.449219 94.035156 C 55.332031 89.917969 53.066406 84.445312 53.066406 78.625 C 53.066406 72.804688 55.332031 67.328125 59.449219 63.210938 C 63.554688 59.105469 69.015625 56.839844 74.824219 56.828125 C 74.835938 56.828125 74.847656 56.828125 74.871094 56.828125 C 80.691406 56.828125 86.164062 59.09375 90.285156 63.210938 C 94.390625 67.328125 96.667969 72.804688 96.667969 78.625 Z M 94.25 79.359375 L 88.777344 79.359375 L 88.777344 78.117188 L 94.25 78.117188 Z M 75.585938 59.234375 L 75.585938 64.707031 L 74.34375 64.707031 L 74.34375 59.234375 Z M 55.46875 77.898438 L 60.941406 77.898438 L 60.941406 79.140625 L 55.46875 79.140625 Z M 74.136719 98.015625 L 74.136719 92.542969 L 75.378906 92.542969 L 75.378906 98.015625 Z M 92.019531 69.25 L 89.445312 70.734375 L 89.109375 70.148438 L 91.6875 68.664062 Z M 65.476562 61.464844 L 66.957031 64.039062 L 66.371094 64.375 L 64.886719 61.796875 Z M 57.699219 88.007812 L 60.277344 86.527344 L 60.609375 87.113281 L 58.035156 88.597656 Z M 84.246094 95.785156 L 82.761719 93.207031 L 83.347656 92.875 L 84.832031 95.449219 Z M 85.027344 61.925781 L 83.542969 64.5 L 82.957031 64.167969 L 84.441406 61.589844 Z M 58.148438 68.457031 L 60.722656 69.941406 L 60.390625 70.527344 L 57.816406 69.042969 Z M 64.691406 95.335938 L 66.175781 92.757812 L 66.761719 93.09375 L 65.277344 95.667969 Z M 91.558594 88.804688 L 88.984375 87.320312 L 89.316406 86.734375 L 91.894531 88.214844 Z M 92.15625 84.6875 L 74.203125 78.578125 L 74.421875 77.933594 L 92.375 84.042969 Z M 75.859375 78.601562 L 75.628906 79.28125 L 75.410156 79.925781 L 73.800781 80.175781 L 72.960938 79.050781 L 71.386719 61.949219 L 71.730469 61.890625 L 71.8125 61.878906 L 72.167969 61.820312 Z M 75.859375 78.601562 " fill-opacity="1" fill-rule="nonzero"/></g></svg>