<svg xmlns="http://www.w3.org/2000/svg" xmlns:xlink="http://www.w3.org/1999/xlink" width="500" zoomAndPan="magnify" viewBox="0 0 375 374.999991" height="500" preserveAspectRatio="xMidYMid meet" version="1.0"><defs><g/><clipPath id="f98b9d43fa"><path d="M 117.273438 130.765625 L 257.523438 130.765625 L 257.523438 198.996094 L 117.273438 198.996094 Z M 117.273438 130.765625 " clip-rule="nonzero"/></clipPath></defs><path fill="#ffffff" d="M 165.546875 157.148438 L 185.042969 139.757812 L 176.3125 131.960938 L 145.6875 159.277344 L 145.6875 171.808594 L 165.546875 171.808594 L 165.546875 157.148438 " fill-opacity="1" fill-rule="evenodd"/><path fill="#ffffff" d="M 185.042969 139.757812 L 165.546875 157.148438 L 165.546875 171.808594 L 189.285156 171.808594 L 189.285156 193.09375 L 211.164062 193.09375 L 211.164062 158.746094 L 187.476562 137.585938 L 185.042969 139.757812 " fill-opacity="1" fill-rule="evenodd"/><path fill="#ffffff" d="M 211.164062 170.191406 L 211.164062 193.09375 L 232.1875 193.09375 L 232.1875 175.429688 L 211.164062 170.191406 " fill-opacity="1" fill-rule="evenodd"/><path fill="#ffffff" d="M 197.78125 183.71875 L 197.78125 171.699219 L 203.84375 171.699219 L 203.84375 183.71875 L 197.78125 183.71875 " fill-opacity="1" fill-rule="evenodd"/><path fill="#ffffff" d="M 149.417969 161.8125 L 179.59375 134.890625 L 176.3125 131.960938 L 145.6875 159.277344 L 145.6875 171.808594 L 149.417969 171.808594 Z M 165.546875 157.148438 L 165.546875 171.808594 L 169.488281 171.808594 L 169.488281 159.847656 L 190.957031 140.695312 L 187.476562 137.585938 L 185.042969 139.757812 L 165.546875 157.148438 " fill-opacity="1" fill-rule="evenodd"/><path fill="#ffffff" d="M 211.164062 173.558594 L 228.585938 177.898438 L 228.585938 193.09375 L 232.1875 193.09375 L 232.1875 175.429688 L 211.164062 170.191406 L 211.164062 173.558594 " fill-opacity="1" fill-rule="evenodd"/><g clip-path="url(#f98b9d43fa)"><path fill="#ffffff" d="M 117.273438 197.230469 L 257.726562 197.230469 L 257.726562 199.019531 L 117.273438 199.019531 Z M 163.703125 170.910156 L 163.703125 159.988281 L 160.46875 162.871094 L 159.28125 161.539062 L 183.703125 139.753906 L 176.316406 133.15625 L 146.582031 159.675781 L 146.582031 170.910156 Z M 165.546875 158.34375 L 165.546875 170.910156 L 190.179688 170.910156 L 190.179688 192.199219 L 210.273438 192.199219 L 210.273438 159.140625 L 187.476562 138.78125 Z M 141.824219 161.527344 L 175.71875 131.292969 L 176.3125 130.765625 L 176.90625 131.296875 L 185.042969 138.5625 L 186.882812 136.917969 L 187.476562 136.390625 L 188.070312 136.925781 L 215.632812 161.539062 L 214.445312 162.867188 L 212.0625 160.738281 L 212.0625 169.496094 L 235.800781 175.410156 L 235.375 177.140625 L 233.082031 176.570312 L 233.082031 192.199219 L 241.789062 192.199219 L 241.789062 193.984375 L 133.214844 193.984375 L 133.214844 192.199219 L 141.46875 192.199219 L 141.46875 170.910156 L 144.792969 170.910156 L 144.792969 161.269531 L 143.011719 162.863281 Z M 231.292969 192.199219 L 231.292969 176.125 L 212.0625 171.335938 L 212.0625 192.199219 Z M 165.546875 172.699219 L 143.257812 172.699219 L 143.257812 192.199219 L 188.390625 192.199219 L 188.390625 172.699219 L 165.546875 172.699219 " fill-opacity="1" fill-rule="nonzero"/></g><path fill="#ffffff" d="M 203.335938 182.929688 L 195.460938 182.929688 L 195.460938 172.621094 L 203.335938 172.621094 Z M 193.636719 170.875 L 193.636719 184.679688 L 205.160156 184.679688 L 205.160156 170.875 L 193.636719 170.875 " fill-opacity="1" fill-rule="nonzero"/><g fill="#ffffff" fill-opacity="1"><g transform="translate(62.473643, 223.371116)"><g><path d="M 13.703125 0.25 C 13.066406 0.25 12.550781 0.164062 12.15625 0 C 11.769531 -0.175781 11.453125 -0.410156 11.203125 -0.703125 C 10.960938 -1.003906 10.753906 -1.332031 10.578125 -1.6875 C 10.398438 -2.039062 10.222656 -2.390625 10.046875 -2.734375 C 9.867188 -3.078125 9.644531 -3.394531 9.375 -3.6875 C 9.101562 -3.988281 8.75 -4.226562 8.3125 -4.40625 C 7.875 -4.582031 7.300781 -4.671875 6.59375 -4.671875 C 6.4375 -4.671875 6.203125 -4.664062 5.890625 -4.65625 C 5.585938 -4.644531 5.289062 -4.628906 5 -4.609375 C 4.707031 -4.585938 4.492188 -4.554688 4.359375 -4.515625 L 4.359375 -2.75 C 4.359375 -1.59375 4.460938 -0.675781 4.671875 0 L 1.390625 0 C 1.484375 -0.34375 1.554688 -0.757812 1.609375 -1.25 C 1.671875 -1.75 1.703125 -2.285156 1.703125 -2.859375 L 1.703125 -9.0625 C 1.703125 -9.644531 1.671875 -10.1875 1.609375 -10.6875 C 1.554688 -11.1875 1.484375 -11.601562 1.390625 -11.9375 L 9.65625 -11.9375 C 10.601562 -11.9375 11.441406 -11.816406 12.171875 -11.578125 C 12.898438 -11.335938 13.46875 -10.984375 13.875 -10.515625 C 14.28125 -10.046875 14.484375 -9.476562 14.484375 -8.8125 C 14.484375 -8.175781 14.289062 -7.609375 13.90625 -7.109375 C 13.519531 -6.617188 12.984375 -6.234375 12.296875 -5.953125 C 11.609375 -5.679688 10.804688 -5.546875 9.890625 -5.546875 L 8.84375 -5.546875 L 8.84375 -5.40625 L 8.984375 -5.40625 C 9.585938 -5.40625 10.085938 -5.328125 10.484375 -5.171875 C 10.878906 -5.023438 11.207031 -4.835938 11.46875 -4.609375 C 11.726562 -4.390625 11.953125 -4.148438 12.140625 -3.890625 C 12.328125 -3.640625 12.503906 -3.398438 12.671875 -3.171875 C 12.847656 -2.941406 13.039062 -2.753906 13.25 -2.609375 C 13.457031 -2.460938 13.71875 -2.390625 14.03125 -2.390625 C 14.5 -2.390625 14.847656 -2.492188 15.078125 -2.703125 C 15.316406 -2.921875 15.515625 -3.210938 15.671875 -3.578125 L 15.78125 -0.625 C 15.59375 -0.363281 15.304688 -0.15625 14.921875 0 C 14.546875 0.164062 14.140625 0.25 13.703125 0.25 Z M 4.359375 -6.5625 L 9.25 -6.5625 C 10.039062 -6.5625 10.664062 -6.691406 11.125 -6.953125 C 11.59375 -7.222656 11.828125 -7.601562 11.828125 -8.09375 C 11.828125 -8.570312 11.601562 -8.945312 11.15625 -9.21875 C 10.707031 -9.488281 10.113281 -9.625 9.375 -9.625 L 4.359375 -9.625 Z M 4.359375 -6.5625 "/></g></g></g><g fill="#ffffff" fill-opacity="1"><g transform="translate(84.366208, 223.371116)"><g><path d="M 6.640625 -12.859375 L 8.84375 -15.328125 L 11.03125 -15.3125 L 8.078125 -12.859375 Z M 1.375 0 C 1.59375 -0.707031 1.703125 -1.660156 1.703125 -2.859375 L 1.703125 -9.0625 C 1.703125 -9.644531 1.671875 -10.1875 1.609375 -10.6875 C 1.546875 -11.1875 1.46875 -11.601562 1.375 -11.9375 L 13.0625 -11.9375 L 13.484375 -9.359375 C 13.285156 -9.453125 12.992188 -9.523438 12.609375 -9.578125 C 12.234375 -9.640625 11.753906 -9.671875 11.171875 -9.671875 L 4.34375 -9.671875 L 4.34375 -7.09375 L 9.84375 -7.09375 C 10.625 -7.09375 11.21875 -7.125 11.625 -7.1875 L 11.625 -4.765625 C 11.21875 -4.835938 10.625 -4.875 9.84375 -4.875 L 4.34375 -4.875 L 4.34375 -2.265625 L 11.28125 -2.265625 C 11.957031 -2.265625 12.5 -2.300781 12.90625 -2.375 C 13.3125 -2.457031 13.640625 -2.566406 13.890625 -2.703125 L 13.40625 0 Z M 1.375 0 "/></g></g></g><g fill="#ffffff" fill-opacity="1"><g transform="translate(104.911818, 223.371116)"><g><path d="M 7.390625 0.234375 C 6.710938 0.234375 5.96875 0.179688 5.15625 0.078125 C 4.34375 -0.015625 3.539062 -0.148438 2.75 -0.328125 C 1.957031 -0.515625 1.25 -0.726562 0.625 -0.96875 L 0.75 -3.6875 C 1.644531 -3.113281 2.660156 -2.6875 3.796875 -2.40625 C 4.929688 -2.132812 6.113281 -2 7.34375 -2 C 8.425781 -2 9.304688 -2.101562 9.984375 -2.3125 C 10.660156 -2.519531 11 -2.882812 11 -3.40625 C 11 -3.71875 10.851562 -3.96875 10.5625 -4.15625 C 10.28125 -4.34375 9.894531 -4.488281 9.40625 -4.59375 C 8.925781 -4.695312 8.382812 -4.785156 7.78125 -4.859375 C 7.1875 -4.941406 6.570312 -5.023438 5.9375 -5.109375 C 5.300781 -5.203125 4.679688 -5.320312 4.078125 -5.46875 C 3.472656 -5.625 2.925781 -5.832031 2.4375 -6.09375 C 1.957031 -6.363281 1.578125 -6.703125 1.296875 -7.109375 C 1.015625 -7.523438 0.875 -8.039062 0.875 -8.65625 C 0.875 -9.425781 1.15625 -10.070312 1.71875 -10.59375 C 2.28125 -11.113281 3.035156 -11.503906 3.984375 -11.765625 C 4.941406 -12.035156 5.992188 -12.171875 7.140625 -12.171875 C 7.785156 -12.171875 8.441406 -12.128906 9.109375 -12.046875 C 9.773438 -11.972656 10.40625 -11.863281 11 -11.71875 C 11.601562 -11.570312 12.125 -11.40625 12.5625 -11.21875 L 12.5625 -8.6875 C 11.9375 -9.050781 11.144531 -9.347656 10.1875 -9.578125 C 9.238281 -9.804688 8.257812 -9.921875 7.25 -9.921875 C 6.613281 -9.921875 6.015625 -9.882812 5.453125 -9.8125 C 4.898438 -9.738281 4.453125 -9.609375 4.109375 -9.421875 C 3.773438 -9.234375 3.609375 -8.96875 3.609375 -8.625 C 3.609375 -8.300781 3.75 -8.039062 4.03125 -7.84375 C 4.320312 -7.65625 4.707031 -7.507812 5.1875 -7.40625 C 5.675781 -7.300781 6.21875 -7.207031 6.8125 -7.125 C 7.414062 -7.039062 8.039062 -6.957031 8.6875 -6.875 C 9.332031 -6.789062 9.953125 -6.675781 10.546875 -6.53125 C 11.148438 -6.382812 11.691406 -6.1875 12.171875 -5.9375 C 12.660156 -5.6875 13.046875 -5.359375 13.328125 -4.953125 C 13.609375 -4.546875 13.75 -4.035156 13.75 -3.421875 C 13.75 -2.660156 13.488281 -2.003906 12.96875 -1.453125 C 12.445312 -0.910156 11.710938 -0.492188 10.765625 -0.203125 C 9.816406 0.0859375 8.691406 0.234375 7.390625 0.234375 Z M 7.390625 0.234375 "/></g></g></g><g fill="#ffffff" fill-opacity="1"><g transform="translate(125.252828, 223.371116)"><g><path d="M 1.375 0 C 1.476562 -0.332031 1.554688 -0.75 1.609375 -1.25 C 1.660156 -1.75 1.6875 -2.285156 1.6875 -2.859375 L 1.6875 -9.0625 C 1.6875 -9.644531 1.65625 -10.1875 1.59375 -10.6875 C 1.539062 -11.1875 1.46875 -11.601562 1.375 -11.9375 L 4.65625 -11.9375 C 4.5625 -11.601562 4.484375 -11.1875 4.421875 -10.6875 C 4.367188 -10.1875 4.34375 -9.644531 4.34375 -9.0625 L 4.34375 -2.859375 C 4.34375 -2.285156 4.367188 -1.75 4.421875 -1.25 C 4.484375 -0.75 4.5625 -0.332031 4.65625 0 Z M 1.375 0 "/></g></g></g><g fill="#ffffff" fill-opacity="1"><g transform="translate(137.222236, 223.371116)"><g><path d="M 1.375 0 C 1.59375 -0.707031 1.703125 -1.660156 1.703125 -2.859375 L 1.703125 -9.0625 C 1.703125 -9.644531 1.671875 -10.1875 1.609375 -10.6875 C 1.546875 -11.1875 1.46875 -11.601562 1.375 -11.9375 L 8.265625 -11.9375 C 9.660156 -11.9375 10.878906 -11.695312 11.921875 -11.21875 C 12.960938 -10.738281 13.769531 -10.050781 14.34375 -9.15625 C 14.914062 -8.269531 15.203125 -7.207031 15.203125 -5.96875 C 15.203125 -4.726562 14.914062 -3.660156 14.34375 -2.765625 C 13.769531 -1.878906 12.960938 -1.195312 11.921875 -0.71875 C 10.878906 -0.238281 9.660156 0 8.265625 0 Z M 4.34375 -2.328125 L 8.078125 -2.328125 C 8.941406 -2.328125 9.703125 -2.472656 10.359375 -2.765625 C 11.023438 -3.054688 11.546875 -3.472656 11.921875 -4.015625 C 12.296875 -4.554688 12.484375 -5.207031 12.484375 -5.96875 C 12.484375 -6.726562 12.296875 -7.378906 11.921875 -7.921875 C 11.546875 -8.472656 11.023438 -8.890625 10.359375 -9.171875 C 9.703125 -9.460938 8.941406 -9.609375 8.078125 -9.609375 L 4.34375 -9.609375 Z M 4.34375 -2.328125 "/></g></g></g><g fill="#ffffff" fill-opacity="1"><g transform="translate(159.1148, 223.371116)"><g><path d="M 1.375 0 C 1.59375 -0.707031 1.703125 -1.660156 1.703125 -2.859375 L 1.703125 -9.0625 C 1.703125 -9.644531 1.671875 -10.1875 1.609375 -10.6875 C 1.546875 -11.1875 1.46875 -11.601562 1.375 -11.9375 L 13.0625 -11.9375 L 13.484375 -9.359375 C 13.285156 -9.453125 12.992188 -9.523438 12.609375 -9.578125 C 12.234375 -9.640625 11.753906 -9.671875 11.171875 -9.671875 L 4.34375 -9.671875 L 4.34375 -7.09375 L 9.84375 -7.09375 C 10.625 -7.09375 11.21875 -7.125 11.625 -7.1875 L 11.625 -4.765625 C 11.21875 -4.835938 10.625 -4.875 9.84375 -4.875 L 4.34375 -4.875 L 4.34375 -2.265625 L 11.28125 -2.265625 C 11.957031 -2.265625 12.5 -2.300781 12.90625 -2.375 C 13.3125 -2.457031 13.640625 -2.566406 13.890625 -2.703125 L 13.40625 0 Z M 1.375 0 "/></g></g></g><g fill="#ffffff" fill-opacity="1"><g transform="translate(179.66041, 223.371116)"><g><path d="M 1.375 0 C 1.46875 -0.332031 1.546875 -0.75 1.609375 -1.25 C 1.671875 -1.75 1.703125 -2.285156 1.703125 -2.859375 L 1.703125 -9.0625 C 1.703125 -10.269531 1.59375 -11.226562 1.375 -11.9375 L 4.46875 -11.9375 L 12.390625 -3.5625 L 12.609375 -3.5625 L 12.609375 -9.125 C 12.609375 -9.707031 12.578125 -10.253906 12.515625 -10.765625 C 12.453125 -11.273438 12.382812 -11.664062 12.3125 -11.9375 L 15.578125 -11.9375 C 15.484375 -11.601562 15.410156 -11.1875 15.359375 -10.6875 C 15.304688 -10.1875 15.28125 -9.644531 15.28125 -9.0625 L 15.28125 0 L 12.84375 0 L 4.546875 -8.640625 L 4.34375 -8.640625 L 4.34375 -3.046875 C 4.34375 -2.460938 4.375 -1.878906 4.4375 -1.296875 C 4.5 -0.722656 4.570312 -0.289062 4.65625 0 Z M 1.375 0 "/></g></g></g><g fill="#ffffff" fill-opacity="1"><g transform="translate(202.541882, 223.371116)"><g><path d="M 8.625 0.234375 C 7.539062 0.234375 6.523438 0.101562 5.578125 -0.15625 C 4.628906 -0.425781 3.796875 -0.820312 3.078125 -1.34375 C 2.359375 -1.875 1.789062 -2.523438 1.375 -3.296875 C 0.96875 -4.066406 0.765625 -4.953125 0.765625 -5.953125 C 0.765625 -6.953125 0.96875 -7.835938 1.375 -8.609375 C 1.78125 -9.378906 2.335938 -10.03125 3.046875 -10.5625 C 3.753906 -11.09375 4.578125 -11.492188 5.515625 -11.765625 C 6.460938 -12.035156 7.484375 -12.171875 8.578125 -12.171875 C 9.554688 -12.171875 10.476562 -12.070312 11.34375 -11.875 C 12.21875 -11.6875 12.945312 -11.4375 13.53125 -11.125 L 13.3125 -8.578125 C 12.832031 -8.941406 12.203125 -9.242188 11.421875 -9.484375 C 10.648438 -9.734375 9.8125 -9.859375 8.90625 -9.859375 C 7.875 -9.859375 6.945312 -9.703125 6.125 -9.390625 C 5.300781 -9.078125 4.644531 -8.628906 4.15625 -8.046875 C 3.675781 -7.460938 3.4375 -6.765625 3.4375 -5.953125 C 3.4375 -5.117188 3.6875 -4.414062 4.1875 -3.84375 C 4.6875 -3.269531 5.363281 -2.832031 6.21875 -2.53125 C 7.070312 -2.226562 8.035156 -2.078125 9.109375 -2.078125 C 10.054688 -2.078125 10.960938 -2.207031 11.828125 -2.46875 C 12.703125 -2.726562 13.429688 -3.085938 14.015625 -3.546875 L 14.015625 -0.796875 C 13.316406 -0.484375 12.515625 -0.234375 11.609375 -0.046875 C 10.703125 0.140625 9.707031 0.234375 8.625 0.234375 Z M 8.625 0.234375 "/></g></g></g><g fill="#ffffff" fill-opacity="1"><g transform="translate(223.036353, 223.371116)"><g><path d="M 1.375 0 C 1.59375 -0.707031 1.703125 -1.660156 1.703125 -2.859375 L 1.703125 -9.0625 C 1.703125 -9.644531 1.671875 -10.1875 1.609375 -10.6875 C 1.546875 -11.1875 1.46875 -11.601562 1.375 -11.9375 L 13.0625 -11.9375 L 13.484375 -9.359375 C 13.285156 -9.453125 12.992188 -9.523438 12.609375 -9.578125 C 12.234375 -9.640625 11.753906 -9.671875 11.171875 -9.671875 L 4.34375 -9.671875 L 4.34375 -7.09375 L 9.84375 -7.09375 C 10.625 -7.09375 11.21875 -7.125 11.625 -7.1875 L 11.625 -4.765625 C 11.21875 -4.835938 10.625 -4.875 9.84375 -4.875 L 4.34375 -4.875 L 4.34375 -2.265625 L 11.28125 -2.265625 C 11.957031 -2.265625 12.5 -2.300781 12.90625 -2.375 C 13.3125 -2.457031 13.640625 -2.566406 13.890625 -2.703125 L 13.40625 0 Z M 1.375 0 "/></g></g></g><g fill="#ffffff" fill-opacity="1"><g transform="translate(243.581957, 223.371116)"><g/></g></g><g fill="#ffffff" fill-opacity="1"><g transform="translate(254.289666, 223.371116)"><g><path d="M 1.375 0 C 1.59375 -0.707031 1.703125 -1.660156 1.703125 -2.859375 L 1.703125 -9.0625 C 1.703125 -9.644531 1.671875 -10.1875 1.609375 -10.6875 C 1.546875 -11.1875 1.46875 -11.601562 1.375 -11.9375 L 8.265625 -11.9375 C 9.660156 -11.9375 10.878906 -11.695312 11.921875 -11.21875 C 12.960938 -10.738281 13.769531 -10.050781 14.34375 -9.15625 C 14.914062 -8.269531 15.203125 -7.207031 15.203125 -5.96875 C 15.203125 -4.726562 14.914062 -3.660156 14.34375 -2.765625 C 13.769531 -1.878906 12.960938 -1.195312 11.921875 -0.71875 C 10.878906 -0.238281 9.660156 0 8.265625 0 Z M 4.34375 -2.328125 L 8.078125 -2.328125 C 8.941406 -2.328125 9.703125 -2.472656 10.359375 -2.765625 C 11.023438 -3.054688 11.546875 -3.472656 11.921875 -4.015625 C 12.296875 -4.554688 12.484375 -5.207031 12.484375 -5.96875 C 12.484375 -6.726562 12.296875 -7.378906 11.921875 -7.921875 C 11.546875 -8.472656 11.023438 -8.890625 10.359375 -9.171875 C 9.703125 -9.460938 8.941406 -9.609375 8.078125 -9.609375 L 4.34375 -9.609375 Z M 4.34375 -2.328125 "/></g></g></g><g fill="#ffffff" fill-opacity="1"><g transform="translate(276.182238, 223.371116)"><g><path d="M 13.703125 0.25 C 13.066406 0.25 12.550781 0.164062 12.15625 0 C 11.769531 -0.175781 11.453125 -0.410156 11.203125 -0.703125 C 10.960938 -1.003906 10.753906 -1.332031 10.578125 -1.6875 C 10.398438 -2.039062 10.222656 -2.390625 10.046875 -2.734375 C 9.867188 -3.078125 9.644531 -3.394531 9.375 -3.6875 C 9.101562 -3.988281 8.75 -4.226562 8.3125 -4.40625 C 7.875 -4.582031 7.300781 -4.671875 6.59375 -4.671875 C 6.4375 -4.671875 6.203125 -4.664062 5.890625 -4.65625 C 5.585938 -4.644531 5.289062 -4.628906 5 -4.609375 C 4.707031 -4.585938 4.492188 -4.554688 4.359375 -4.515625 L 4.359375 -2.75 C 4.359375 -1.59375 4.460938 -0.675781 4.671875 0 L 1.390625 0 C 1.484375 -0.34375 1.554688 -0.757812 1.609375 -1.25 C 1.671875 -1.75 1.703125 -2.285156 1.703125 -2.859375 L 1.703125 -9.0625 C 1.703125 -9.644531 1.671875 -10.1875 1.609375 -10.6875 C 1.554688 -11.1875 1.484375 -11.601562 1.390625 -11.9375 L 9.65625 -11.9375 C 10.601562 -11.9375 11.441406 -11.816406 12.171875 -11.578125 C 12.898438 -11.335938 13.46875 -10.984375 13.875 -10.515625 C 14.28125 -10.046875 14.484375 -9.476562 14.484375 -8.8125 C 14.484375 -8.175781 14.289062 -7.609375 13.90625 -7.109375 C 13.519531 -6.617188 12.984375 -6.234375 12.296875 -5.953125 C 11.609375 -5.679688 10.804688 -5.546875 9.890625 -5.546875 L 8.84375 -5.546875 L 8.84375 -5.40625 L 8.984375 -5.40625 C 9.585938 -5.40625 10.085938 -5.328125 10.484375 -5.171875 C 10.878906 -5.023438 11.207031 -4.835938 11.46875 -4.609375 C 11.726562 -4.390625 11.953125 -4.148438 12.140625 -3.890625 C 12.328125 -3.640625 12.503906 -3.398438 12.671875 -3.171875 C 12.847656 -2.941406 13.039062 -2.753906 13.25 -2.609375 C 13.457031 -2.460938 13.71875 -2.390625 14.03125 -2.390625 C 14.5 -2.390625 14.847656 -2.492188 15.078125 -2.703125 C 15.316406 -2.921875 15.515625 -3.210938 15.671875 -3.578125 L 15.78125 -0.625 C 15.59375 -0.363281 15.304688 -0.15625 14.921875 0 C 14.546875 0.164062 14.140625 0.25 13.703125 0.25 Z M 4.359375 -6.5625 L 9.25 -6.5625 C 10.039062 -6.5625 10.664062 -6.691406 11.125 -6.953125 C 11.59375 -7.222656 11.828125 -7.601562 11.828125 -8.09375 C 11.828125 -8.570312 11.601562 -8.945312 11.15625 -9.21875 C 10.707031 -9.488281 10.113281 -9.625 9.375 -9.625 L 4.359375 -9.625 Z M 4.359375 -6.5625 "/></g></g></g><g fill="#ffffff" fill-opacity="1"><g transform="translate(298.07481, 223.371116)"><g><path d="M 7.390625 0.234375 C 6.710938 0.234375 5.96875 0.179688 5.15625 0.078125 C 4.34375 -0.015625 3.539062 -0.148438 2.75 -0.328125 C 1.957031 -0.515625 1.25 -0.726562 0.625 -0.96875 L 0.75 -3.6875 C 1.644531 -3.113281 2.660156 -2.6875 3.796875 -2.40625 C 4.929688 -2.132812 6.113281 -2 7.34375 -2 C 8.425781 -2 9.304688 -2.101562 9.984375 -2.3125 C 10.660156 -2.519531 11 -2.882812 11 -3.40625 C 11 -3.71875 10.851562 -3.96875 10.5625 -4.15625 C 10.28125 -4.34375 9.894531 -4.488281 9.40625 -4.59375 C 8.925781 -4.695312 8.382812 -4.785156 7.78125 -4.859375 C 7.1875 -4.941406 6.570312 -5.023438 5.9375 -5.109375 C 5.300781 -5.203125 4.679688 -5.320312 4.078125 -5.46875 C 3.472656 -5.625 2.925781 -5.832031 2.4375 -6.09375 C 1.957031 -6.363281 1.578125 -6.703125 1.296875 -7.109375 C 1.015625 -7.523438 0.875 -8.039062 0.875 -8.65625 C 0.875 -9.425781 1.15625 -10.070312 1.71875 -10.59375 C 2.28125 -11.113281 3.035156 -11.503906 3.984375 -11.765625 C 4.941406 -12.035156 5.992188 -12.171875 7.140625 -12.171875 C 7.785156 -12.171875 8.441406 -12.128906 9.109375 -12.046875 C 9.773438 -11.972656 10.40625 -11.863281 11 -11.71875 C 11.601562 -11.570312 12.125 -11.40625 12.5625 -11.21875 L 12.5625 -8.6875 C 11.9375 -9.050781 11.144531 -9.347656 10.1875 -9.578125 C 9.238281 -9.804688 8.257812 -9.921875 7.25 -9.921875 C 6.613281 -9.921875 6.015625 -9.882812 5.453125 -9.8125 C 4.898438 -9.738281 4.453125 -9.609375 4.109375 -9.421875 C 3.773438 -9.234375 3.609375 -8.96875 3.609375 -8.625 C 3.609375 -8.300781 3.75 -8.039062 4.03125 -7.84375 C 4.320312 -7.65625 4.707031 -7.507812 5.1875 -7.40625 C 5.675781 -7.300781 6.21875 -7.207031 6.8125 -7.125 C 7.414062 -7.039062 8.039062 -6.957031 8.6875 -6.875 C 9.332031 -6.789062 9.953125 -6.675781 10.546875 -6.53125 C 11.148438 -6.382812 11.691406 -6.1875 12.171875 -5.9375 C 12.660156 -5.6875 13.046875 -5.359375 13.328125 -4.953125 C 13.609375 -4.546875 13.75 -4.035156 13.75 -3.421875 C 13.75 -2.660156 13.488281 -2.003906 12.96875 -1.453125 C 12.445312 -0.910156 11.710938 -0.492188 10.765625 -0.203125 C 9.816406 0.0859375 8.691406 0.234375 7.390625 0.234375 Z M 7.390625 0.234375 "/></g></g></g><g fill="#ffffff" fill-opacity="1"><g transform="translate(93.47125, 241.312064)"><g><path d="M 0.625 0 C 0.71875 -0.3125 0.765625 -0.738281 0.765625 -1.28125 L 0.765625 -4.078125 C 0.765625 -4.335938 0.75 -4.578125 0.71875 -4.796875 C 0.695312 -5.023438 0.664062 -5.21875 0.625 -5.375 L 3.71875 -5.375 C 4.351562 -5.375 4.898438 -5.265625 5.359375 -5.046875 C 5.828125 -4.828125 6.191406 -4.515625 6.453125 -4.109375 C 6.710938 -3.710938 6.84375 -3.238281 6.84375 -2.6875 C 6.84375 -2.125 6.710938 -1.640625 6.453125 -1.234375 C 6.191406 -0.835938 5.828125 -0.53125 5.359375 -0.3125 C 4.898438 -0.101562 4.351562 0 3.71875 0 Z M 1.953125 -1.046875 L 3.640625 -1.046875 C 4.023438 -1.046875 4.363281 -1.109375 4.65625 -1.234375 C 4.957031 -1.367188 5.191406 -1.554688 5.359375 -1.796875 C 5.523438 -2.046875 5.609375 -2.34375 5.609375 -2.6875 C 5.609375 -3.03125 5.523438 -3.320312 5.359375 -3.5625 C 5.191406 -3.8125 4.957031 -4 4.65625 -4.125 C 4.363281 -4.257812 4.023438 -4.328125 3.640625 -4.328125 L 1.953125 -4.328125 Z M 1.953125 -1.046875 "/></g></g></g><g fill="#ffffff" fill-opacity="1"><g transform="translate(103.318593, 241.312064)"><g><path d="M 2.984375 -5.78125 L 3.984375 -6.890625 L 4.96875 -6.890625 L 3.640625 -5.78125 Z M 0.625 0 C 0.71875 -0.3125 0.765625 -0.738281 0.765625 -1.28125 L 0.765625 -4.078125 C 0.765625 -4.335938 0.75 -4.578125 0.71875 -4.796875 C 0.695312 -5.023438 0.664062 -5.21875 0.625 -5.375 L 5.875 -5.375 L 6.0625 -4.21875 C 5.976562 -4.25 5.847656 -4.273438 5.671875 -4.296875 C 5.503906 -4.328125 5.289062 -4.34375 5.03125 -4.34375 L 1.953125 -4.34375 L 1.953125 -3.1875 L 4.421875 -3.1875 C 4.773438 -3.1875 5.046875 -3.203125 5.234375 -3.234375 L 5.234375 -2.140625 C 5.046875 -2.171875 4.773438 -2.1875 4.421875 -2.1875 L 1.953125 -2.1875 L 1.953125 -1.015625 L 5.078125 -1.015625 C 5.378906 -1.015625 5.617188 -1.03125 5.796875 -1.0625 C 5.984375 -1.101562 6.132812 -1.15625 6.25 -1.21875 L 6.03125 0 Z M 0.625 0 "/></g></g></g><g fill="#ffffff" fill-opacity="1"><g transform="translate(112.560057, 241.312064)"><g><path d="M 2.40625 0 C 2.445312 -0.15625 2.476562 -0.34375 2.5 -0.5625 C 2.53125 -0.78125 2.546875 -1.019531 2.546875 -1.28125 L 2.546875 -4.328125 L 1.203125 -4.328125 C 0.953125 -4.328125 0.75 -4.316406 0.59375 -4.296875 C 0.4375 -4.273438 0.289062 -4.242188 0.15625 -4.203125 L 0.40625 -5.375 L 5.875 -5.375 L 6.109375 -4.203125 C 5.984375 -4.242188 5.835938 -4.273438 5.671875 -4.296875 C 5.515625 -4.316406 5.3125 -4.328125 5.0625 -4.328125 L 3.734375 -4.328125 L 3.734375 -1.28125 C 3.734375 -1.019531 3.742188 -0.78125 3.765625 -0.5625 C 3.796875 -0.34375 3.832031 -0.15625 3.875 0 Z M 2.40625 0 "/></g></g></g><g fill="#ffffff" fill-opacity="1"><g transform="translate(121.479415, 241.312064)"><g><path d="M 0.625 0 C 0.71875 -0.3125 0.765625 -0.738281 0.765625 -1.28125 L 0.765625 -4.078125 C 0.765625 -4.335938 0.75 -4.578125 0.71875 -4.796875 C 0.695312 -5.023438 0.664062 -5.21875 0.625 -5.375 L 5.875 -5.375 L 6.0625 -4.21875 C 5.976562 -4.25 5.847656 -4.273438 5.671875 -4.296875 C 5.503906 -4.328125 5.289062 -4.34375 5.03125 -4.34375 L 1.953125 -4.34375 L 1.953125 -3.1875 L 4.421875 -3.1875 C 4.773438 -3.1875 5.046875 -3.203125 5.234375 -3.234375 L 5.234375 -2.140625 C 5.046875 -2.171875 4.773438 -2.1875 4.421875 -2.1875 L 1.953125 -2.1875 L 1.953125 -1.015625 L 5.078125 -1.015625 C 5.378906 -1.015625 5.617188 -1.03125 5.796875 -1.0625 C 5.984375 -1.101562 6.132812 -1.15625 6.25 -1.21875 L 6.03125 0 Z M 0.625 0 "/></g></g></g><g fill="#ffffff" fill-opacity="1"><g transform="translate(130.72088, 241.312064)"><g><path d="M 0.625 0 C 0.664062 -0.144531 0.695312 -0.328125 0.71875 -0.546875 C 0.75 -0.773438 0.765625 -1.019531 0.765625 -1.28125 L 0.765625 -4.078125 C 0.765625 -4.617188 0.71875 -5.050781 0.625 -5.375 L 2.015625 -5.375 L 5.578125 -1.609375 L 5.671875 -1.609375 L 5.671875 -4.109375 C 5.671875 -4.367188 5.65625 -4.613281 5.625 -4.84375 C 5.601562 -5.070312 5.578125 -5.25 5.546875 -5.375 L 7.015625 -5.375 C 6.972656 -5.21875 6.9375 -5.023438 6.90625 -4.796875 C 6.882812 -4.578125 6.875 -4.335938 6.875 -4.078125 L 6.875 0 L 5.78125 0 L 2.046875 -3.890625 L 1.953125 -3.890625 L 1.953125 -1.375 C 1.953125 -1.101562 1.96875 -0.835938 2 -0.578125 C 2.03125 -0.328125 2.0625 -0.132812 2.09375 0 Z M 0.625 0 "/></g></g></g><g fill="#ffffff" fill-opacity="1"><g transform="translate(141.013039, 241.312064)"><g><path d="M 2.40625 0 C 2.445312 -0.15625 2.476562 -0.34375 2.5 -0.5625 C 2.53125 -0.78125 2.546875 -1.019531 2.546875 -1.28125 L 2.546875 -4.328125 L 1.203125 -4.328125 C 0.953125 -4.328125 0.75 -4.316406 0.59375 -4.296875 C 0.4375 -4.273438 0.289062 -4.242188 0.15625 -4.203125 L 0.40625 -5.375 L 5.875 -5.375 L 6.109375 -4.203125 C 5.984375 -4.242188 5.835938 -4.273438 5.671875 -4.296875 C 5.515625 -4.316406 5.3125 -4.328125 5.0625 -4.328125 L 3.734375 -4.328125 L 3.734375 -1.28125 C 3.734375 -1.019531 3.742188 -0.78125 3.765625 -0.5625 C 3.796875 -0.34375 3.832031 -0.15625 3.875 0 Z M 2.40625 0 "/></g></g></g><g fill="#ffffff" fill-opacity="1"><g transform="translate(149.932399, 241.312064)"><g><path d="M 0.625 0 C 0.71875 -0.3125 0.765625 -0.738281 0.765625 -1.28125 L 0.765625 -4.078125 C 0.765625 -4.335938 0.75 -4.578125 0.71875 -4.796875 C 0.695312 -5.023438 0.664062 -5.21875 0.625 -5.375 L 5.875 -5.375 L 6.0625 -4.21875 C 5.976562 -4.25 5.847656 -4.273438 5.671875 -4.296875 C 5.503906 -4.328125 5.289062 -4.34375 5.03125 -4.34375 L 1.953125 -4.34375 L 1.953125 -3.1875 L 4.421875 -3.1875 C 4.773438 -3.1875 5.046875 -3.203125 5.234375 -3.234375 L 5.234375 -2.140625 C 5.046875 -2.171875 4.773438 -2.1875 4.421875 -2.1875 L 1.953125 -2.1875 L 1.953125 -1.015625 L 5.078125 -1.015625 C 5.378906 -1.015625 5.617188 -1.03125 5.796875 -1.0625 C 5.984375 -1.101562 6.132812 -1.15625 6.25 -1.21875 L 6.03125 0 Z M 0.625 0 "/></g></g></g><g fill="#ffffff" fill-opacity="1"><g transform="translate(159.173864, 241.312064)"><g><path d="M 0.328125 -1.53125 L 0.328125 -2.21875 L 3.25 -2.21875 L 3.25 -1.53125 Z M 0.328125 -1.53125 "/></g></g></g><g fill="#ffffff" fill-opacity="1"><g transform="translate(165.401301, 241.312064)"><g><path d="M 6.171875 0.109375 C 5.878906 0.109375 5.644531 0.0703125 5.46875 0 C 5.289062 -0.0820312 5.144531 -0.1875 5.03125 -0.3125 C 4.925781 -0.445312 4.832031 -0.59375 4.75 -0.75 C 4.675781 -0.914062 4.597656 -1.078125 4.515625 -1.234375 C 4.441406 -1.390625 4.34375 -1.53125 4.21875 -1.65625 C 4.09375 -1.789062 3.929688 -1.898438 3.734375 -1.984375 C 3.535156 -2.066406 3.28125 -2.109375 2.96875 -2.109375 C 2.894531 -2.109375 2.789062 -2.101562 2.65625 -2.09375 C 2.519531 -2.09375 2.382812 -2.085938 2.25 -2.078125 C 2.125 -2.066406 2.03125 -2.050781 1.96875 -2.03125 L 1.96875 -1.234375 C 1.96875 -0.710938 2.015625 -0.300781 2.109375 0 L 0.625 0 C 0.664062 -0.15625 0.695312 -0.34375 0.71875 -0.5625 C 0.75 -0.78125 0.765625 -1.019531 0.765625 -1.28125 L 0.765625 -4.078125 C 0.765625 -4.335938 0.75 -4.578125 0.71875 -4.796875 C 0.695312 -5.023438 0.664062 -5.21875 0.625 -5.375 L 4.34375 -5.375 C 4.769531 -5.375 5.144531 -5.316406 5.46875 -5.203125 C 5.800781 -5.097656 6.054688 -4.941406 6.234375 -4.734375 C 6.421875 -4.523438 6.515625 -4.269531 6.515625 -3.96875 C 6.515625 -3.675781 6.425781 -3.421875 6.25 -3.203125 C 6.082031 -2.984375 5.84375 -2.8125 5.53125 -2.6875 C 5.226562 -2.5625 4.867188 -2.5 4.453125 -2.5 L 3.984375 -2.5 L 3.984375 -2.4375 L 4.046875 -2.4375 C 4.316406 -2.4375 4.539062 -2.398438 4.71875 -2.328125 C 4.894531 -2.265625 5.039062 -2.179688 5.15625 -2.078125 C 5.28125 -1.972656 5.382812 -1.863281 5.46875 -1.75 C 5.550781 -1.632812 5.628906 -1.523438 5.703125 -1.421875 C 5.785156 -1.328125 5.875 -1.242188 5.96875 -1.171875 C 6.0625 -1.109375 6.175781 -1.078125 6.3125 -1.078125 C 6.519531 -1.078125 6.675781 -1.125 6.78125 -1.21875 C 6.894531 -1.3125 6.984375 -1.441406 7.046875 -1.609375 L 7.109375 -0.28125 C 7.015625 -0.164062 6.878906 -0.0703125 6.703125 0 C 6.535156 0.0703125 6.359375 0.109375 6.171875 0.109375 Z M 1.96875 -2.953125 L 4.171875 -2.953125 C 4.515625 -2.953125 4.789062 -3.007812 5 -3.125 C 5.21875 -3.25 5.328125 -3.421875 5.328125 -3.640625 C 5.328125 -3.859375 5.222656 -4.023438 5.015625 -4.140625 C 4.816406 -4.265625 4.550781 -4.328125 4.21875 -4.328125 L 1.96875 -4.328125 Z M 1.96875 -2.953125 "/></g></g></g><g fill="#ffffff" fill-opacity="1"><g transform="translate(175.248645, 241.312064)"><g><path d="M 0.625 0 C 0.71875 -0.3125 0.765625 -0.738281 0.765625 -1.28125 L 0.765625 -4.078125 C 0.765625 -4.335938 0.75 -4.578125 0.71875 -4.796875 C 0.695312 -5.023438 0.664062 -5.21875 0.625 -5.375 L 5.875 -5.375 L 6.0625 -4.21875 C 5.976562 -4.25 5.847656 -4.273438 5.671875 -4.296875 C 5.503906 -4.328125 5.289062 -4.34375 5.03125 -4.34375 L 1.953125 -4.34375 L 1.953125 -3.1875 L 4.421875 -3.1875 C 4.773438 -3.1875 5.046875 -3.203125 5.234375 -3.234375 L 5.234375 -2.140625 C 5.046875 -2.171875 4.773438 -2.1875 4.421875 -2.1875 L 1.953125 -2.1875 L 1.953125 -1.015625 L 5.078125 -1.015625 C 5.378906 -1.015625 5.617188 -1.03125 5.796875 -1.0625 C 5.984375 -1.101562 6.132812 -1.15625 6.25 -1.21875 L 6.03125 0 Z M 0.625 0 "/></g></g></g><g fill="#ffffff" fill-opacity="1"><g transform="translate(184.490106, 241.312064)"><g><path d="M 0.625 0 C 0.71875 -0.3125 0.765625 -0.738281 0.765625 -1.28125 L 0.765625 -4.078125 C 0.765625 -4.335938 0.75 -4.578125 0.71875 -4.796875 C 0.695312 -5.023438 0.664062 -5.21875 0.625 -5.375 L 4.0625 -5.375 C 4.539062 -5.375 4.96875 -5.296875 5.34375 -5.140625 C 5.726562 -4.992188 6.023438 -4.773438 6.234375 -4.484375 C 6.453125 -4.191406 6.5625 -3.832031 6.5625 -3.40625 C 6.5625 -2.976562 6.460938 -2.613281 6.265625 -2.3125 C 6.078125 -2.007812 5.816406 -1.773438 5.484375 -1.609375 C 5.148438 -1.453125 4.769531 -1.375 4.34375 -1.375 C 3.726562 -1.375 3.210938 -1.492188 2.796875 -1.734375 C 2.378906 -1.984375 2.125 -2.375 2.03125 -2.90625 L 1.96875 -2.90625 L 1.953125 -1.265625 C 1.953125 -1.003906 1.960938 -0.765625 1.984375 -0.546875 C 2.015625 -0.328125 2.050781 -0.144531 2.09375 0 Z M 3.890625 -2.34375 C 4.148438 -2.34375 4.394531 -2.382812 4.625 -2.46875 C 4.851562 -2.550781 5.035156 -2.671875 5.171875 -2.828125 C 5.304688 -2.992188 5.375 -3.1875 5.375 -3.40625 C 5.375 -3.71875 5.242188 -3.960938 4.984375 -4.140625 C 4.722656 -4.328125 4.351562 -4.421875 3.875 -4.421875 C 3.53125 -4.421875 3.203125 -4.414062 2.890625 -4.40625 C 2.578125 -4.394531 2.269531 -4.375 1.96875 -4.34375 L 1.96875 -3.828125 C 1.96875 -3.515625 2.0625 -3.25 2.25 -3.03125 C 2.4375 -2.8125 2.675781 -2.640625 2.96875 -2.515625 C 3.257812 -2.398438 3.566406 -2.34375 3.890625 -2.34375 Z M 3.890625 -2.34375 "/></g></g></g><g fill="#ffffff" fill-opacity="1"><g transform="translate(193.923305, 241.312064)"><g><path d="M 3.671875 0.109375 C 3.023438 0.109375 2.453125 0 1.953125 -0.21875 C 1.453125 -0.445312 1.054688 -0.769531 0.765625 -1.1875 C 0.484375 -1.601562 0.34375 -2.101562 0.34375 -2.6875 C 0.34375 -3.269531 0.484375 -3.769531 0.765625 -4.1875 C 1.054688 -4.601562 1.453125 -4.921875 1.953125 -5.140625 C 2.453125 -5.367188 3.023438 -5.484375 3.671875 -5.484375 C 4.304688 -5.484375 4.875 -5.367188 5.375 -5.140625 C 5.875 -4.921875 6.265625 -4.601562 6.546875 -4.1875 C 6.835938 -3.769531 6.984375 -3.269531 6.984375 -2.6875 C 6.984375 -2.101562 6.835938 -1.601562 6.546875 -1.1875 C 6.265625 -0.769531 5.875 -0.445312 5.375 -0.21875 C 4.875 0 4.304688 0.109375 3.671875 0.109375 Z M 3.671875 -0.84375 C 4.066406 -0.84375 4.421875 -0.914062 4.734375 -1.0625 C 5.054688 -1.207031 5.3125 -1.421875 5.5 -1.703125 C 5.6875 -1.984375 5.78125 -2.3125 5.78125 -2.6875 C 5.78125 -3.070312 5.6875 -3.398438 5.5 -3.671875 C 5.3125 -3.941406 5.054688 -4.148438 4.734375 -4.296875 C 4.421875 -4.453125 4.066406 -4.53125 3.671875 -4.53125 C 3.265625 -4.53125 2.898438 -4.453125 2.578125 -4.296875 C 2.265625 -4.148438 2.015625 -3.941406 1.828125 -3.671875 C 1.648438 -3.398438 1.5625 -3.070312 1.5625 -2.6875 C 1.5625 -2.3125 1.648438 -1.984375 1.828125 -1.703125 C 2.015625 -1.421875 2.265625 -1.207031 2.578125 -1.0625 C 2.898438 -0.914062 3.265625 -0.84375 3.671875 -0.84375 Z M 3.671875 -0.84375 "/></g></g></g><g fill="#ffffff" fill-opacity="1"><g transform="translate(203.916362, 241.312064)"><g><path d="M 3.328125 0.109375 C 3.023438 0.109375 2.6875 0.0820312 2.3125 0.03125 C 1.945312 -0.0078125 1.585938 -0.0703125 1.234375 -0.15625 C 0.878906 -0.238281 0.5625 -0.332031 0.28125 -0.4375 L 0.34375 -1.65625 C 0.738281 -1.40625 1.191406 -1.210938 1.703125 -1.078125 C 2.222656 -0.953125 2.757812 -0.890625 3.3125 -0.890625 C 3.789062 -0.890625 4.179688 -0.9375 4.484375 -1.03125 C 4.796875 -1.132812 4.953125 -1.300781 4.953125 -1.53125 C 4.953125 -1.664062 4.882812 -1.773438 4.75 -1.859375 C 4.625 -1.953125 4.453125 -2.019531 4.234375 -2.0625 C 4.015625 -2.113281 3.769531 -2.15625 3.5 -2.1875 C 3.226562 -2.21875 2.945312 -2.253906 2.65625 -2.296875 C 2.375 -2.335938 2.097656 -2.390625 1.828125 -2.453125 C 1.554688 -2.523438 1.3125 -2.617188 1.09375 -2.734375 C 0.882812 -2.859375 0.710938 -3.015625 0.578125 -3.203125 C 0.453125 -3.390625 0.390625 -3.617188 0.390625 -3.890625 C 0.390625 -4.242188 0.515625 -4.535156 0.765625 -4.765625 C 1.023438 -4.992188 1.367188 -5.171875 1.796875 -5.296875 C 2.222656 -5.421875 2.695312 -5.484375 3.21875 -5.484375 C 3.507812 -5.484375 3.800781 -5.460938 4.09375 -5.421875 C 4.394531 -5.390625 4.679688 -5.335938 4.953125 -5.265625 C 5.222656 -5.203125 5.457031 -5.128906 5.65625 -5.046875 L 5.65625 -3.90625 C 5.375 -4.070312 5.015625 -4.207031 4.578125 -4.3125 C 4.148438 -4.414062 3.710938 -4.46875 3.265625 -4.46875 C 2.972656 -4.46875 2.703125 -4.445312 2.453125 -4.40625 C 2.203125 -4.375 2 -4.316406 1.84375 -4.234375 C 1.695312 -4.148438 1.625 -4.03125 1.625 -3.875 C 1.625 -3.738281 1.6875 -3.625 1.8125 -3.53125 C 1.945312 -3.445312 2.117188 -3.378906 2.328125 -3.328125 C 2.546875 -3.285156 2.789062 -3.242188 3.0625 -3.203125 C 3.332031 -3.171875 3.613281 -3.132812 3.90625 -3.09375 C 4.195312 -3.050781 4.476562 -3 4.75 -2.9375 C 5.019531 -2.875 5.265625 -2.785156 5.484375 -2.671875 C 5.703125 -2.554688 5.875 -2.40625 6 -2.21875 C 6.125 -2.039062 6.1875 -1.816406 6.1875 -1.546875 C 6.1875 -1.203125 6.066406 -0.90625 5.828125 -0.65625 C 5.597656 -0.414062 5.269531 -0.226562 4.84375 -0.09375 C 4.414062 0.0390625 3.910156 0.109375 3.328125 0.109375 Z M 3.328125 0.109375 "/></g></g></g><g fill="#ffffff" fill-opacity="1"><g transform="translate(213.065799, 241.312064)"><g><path d="M 0.328125 -1.53125 L 0.328125 -2.21875 L 3.25 -2.21875 L 3.25 -1.53125 Z M 0.328125 -1.53125 "/></g></g></g><g fill="#ffffff" fill-opacity="1"><g transform="translate(219.293235, 241.312064)"><g><path d="M 3.328125 0.109375 C 3.023438 0.109375 2.6875 0.0820312 2.3125 0.03125 C 1.945312 -0.0078125 1.585938 -0.0703125 1.234375 -0.15625 C 0.878906 -0.238281 0.5625 -0.332031 0.28125 -0.4375 L 0.34375 -1.65625 C 0.738281 -1.40625 1.191406 -1.210938 1.703125 -1.078125 C 2.222656 -0.953125 2.757812 -0.890625 3.3125 -0.890625 C 3.789062 -0.890625 4.179688 -0.9375 4.484375 -1.03125 C 4.796875 -1.132812 4.953125 -1.300781 4.953125 -1.53125 C 4.953125 -1.664062 4.882812 -1.773438 4.75 -1.859375 C 4.625 -1.953125 4.453125 -2.019531 4.234375 -2.0625 C 4.015625 -2.113281 3.769531 -2.15625 3.5 -2.1875 C 3.226562 -2.21875 2.945312 -2.253906 2.65625 -2.296875 C 2.375 -2.335938 2.097656 -2.390625 1.828125 -2.453125 C 1.554688 -2.523438 1.3125 -2.617188 1.09375 -2.734375 C 0.882812 -2.859375 0.710938 -3.015625 0.578125 -3.203125 C 0.453125 -3.390625 0.390625 -3.617188 0.390625 -3.890625 C 0.390625 -4.242188 0.515625 -4.535156 0.765625 -4.765625 C 1.023438 -4.992188 1.367188 -5.171875 1.796875 -5.296875 C 2.222656 -5.421875 2.695312 -5.484375 3.21875 -5.484375 C 3.507812 -5.484375 3.800781 -5.460938 4.09375 -5.421875 C 4.394531 -5.390625 4.679688 -5.335938 4.953125 -5.265625 C 5.222656 -5.203125 5.457031 -5.128906 5.65625 -5.046875 L 5.65625 -3.90625 C 5.375 -4.070312 5.015625 -4.207031 4.578125 -4.3125 C 4.148438 -4.414062 3.710938 -4.46875 3.265625 -4.46875 C 2.972656 -4.46875 2.703125 -4.445312 2.453125 -4.40625 C 2.203125 -4.375 2 -4.316406 1.84375 -4.234375 C 1.695312 -4.148438 1.625 -4.03125 1.625 -3.875 C 1.625 -3.738281 1.6875 -3.625 1.8125 -3.53125 C 1.945312 -3.445312 2.117188 -3.378906 2.328125 -3.328125 C 2.546875 -3.285156 2.789062 -3.242188 3.0625 -3.203125 C 3.332031 -3.171875 3.613281 -3.132812 3.90625 -3.09375 C 4.195312 -3.050781 4.476562 -3 4.75 -2.9375 C 5.019531 -2.875 5.265625 -2.785156 5.484375 -2.671875 C 5.703125 -2.554688 5.875 -2.40625 6 -2.21875 C 6.125 -2.039062 6.1875 -1.816406 6.1875 -1.546875 C 6.1875 -1.203125 6.066406 -0.90625 5.828125 -0.65625 C 5.597656 -0.414062 5.269531 -0.226562 4.84375 -0.09375 C 4.414062 0.0390625 3.910156 0.109375 3.328125 0.109375 Z M 3.328125 0.109375 "/></g></g></g><g fill="#ffffff" fill-opacity="1"><g transform="translate(228.442672, 241.312064)"><g><path d="M 2.984375 -5.78125 L 3.984375 -6.890625 L 4.96875 -6.890625 L 3.640625 -5.78125 Z M 0.625 0 C 0.71875 -0.3125 0.765625 -0.738281 0.765625 -1.28125 L 0.765625 -4.078125 C 0.765625 -4.335938 0.75 -4.578125 0.71875 -4.796875 C 0.695312 -5.023438 0.664062 -5.21875 0.625 -5.375 L 5.875 -5.375 L 6.0625 -4.21875 C 5.976562 -4.25 5.847656 -4.273438 5.671875 -4.296875 C 5.503906 -4.328125 5.289062 -4.34375 5.03125 -4.34375 L 1.953125 -4.34375 L 1.953125 -3.1875 L 4.421875 -3.1875 C 4.773438 -3.1875 5.046875 -3.203125 5.234375 -3.234375 L 5.234375 -2.140625 C 5.046875 -2.171875 4.773438 -2.1875 4.421875 -2.1875 L 1.953125 -2.1875 L 1.953125 -1.015625 L 5.078125 -1.015625 C 5.378906 -1.015625 5.617188 -1.03125 5.796875 -1.0625 C 5.984375 -1.101562 6.132812 -1.15625 6.25 -1.21875 L 6.03125 0 Z M 0.625 0 "/></g></g></g><g fill="#ffffff" fill-opacity="1"><g transform="translate(237.684138, 241.312064)"><g><path d="M 1.6875 0.109375 C 1.40625 0.109375 1.117188 0.078125 0.828125 0.015625 C 0.546875 -0.046875 0.300781 -0.117188 0.09375 -0.203125 L 0.25 -1.234375 C 0.59375 -0.972656 1.035156 -0.84375 1.578125 -0.84375 C 2.078125 -0.84375 2.453125 -0.984375 2.703125 -1.265625 C 2.953125 -1.554688 3.078125 -1.945312 3.078125 -2.4375 L 3.078125 -4.078125 C 3.078125 -4.335938 3.0625 -4.578125 3.03125 -4.796875 C 3.007812 -5.023438 2.976562 -5.21875 2.9375 -5.375 L 4.421875 -5.375 C 4.316406 -5.050781 4.265625 -4.617188 4.265625 -4.078125 L 4.265625 -2.234375 C 4.265625 -1.441406 4.039062 -0.851562 3.59375 -0.46875 C 3.15625 -0.0820312 2.519531 0.109375 1.6875 0.109375 Z M 1.6875 0.109375 "/></g></g></g><g fill="#ffffff" fill-opacity="1"><g transform="translate(245.330393, 241.312064)"><g><path d="M 3.671875 0.109375 C 3.023438 0.109375 2.453125 0 1.953125 -0.21875 C 1.453125 -0.445312 1.054688 -0.769531 0.765625 -1.1875 C 0.484375 -1.601562 0.34375 -2.101562 0.34375 -2.6875 C 0.34375 -3.269531 0.484375 -3.769531 0.765625 -4.1875 C 1.054688 -4.601562 1.453125 -4.921875 1.953125 -5.140625 C 2.453125 -5.367188 3.023438 -5.484375 3.671875 -5.484375 C 4.304688 -5.484375 4.875 -5.367188 5.375 -5.140625 C 5.875 -4.921875 6.265625 -4.601562 6.546875 -4.1875 C 6.835938 -3.769531 6.984375 -3.269531 6.984375 -2.6875 C 6.984375 -2.101562 6.835938 -1.601562 6.546875 -1.1875 C 6.265625 -0.769531 5.875 -0.445312 5.375 -0.21875 C 4.875 0 4.304688 0.109375 3.671875 0.109375 Z M 3.671875 -0.84375 C 4.066406 -0.84375 4.421875 -0.914062 4.734375 -1.0625 C 5.054688 -1.207031 5.3125 -1.421875 5.5 -1.703125 C 5.6875 -1.984375 5.78125 -2.3125 5.78125 -2.6875 C 5.78125 -3.070312 5.6875 -3.398438 5.5 -3.671875 C 5.3125 -3.941406 5.054688 -4.148438 4.734375 -4.296875 C 4.421875 -4.453125 4.066406 -4.53125 3.671875 -4.53125 C 3.265625 -4.53125 2.898438 -4.453125 2.578125 -4.296875 C 2.265625 -4.148438 2.015625 -3.941406 1.828125 -3.671875 C 1.648438 -3.398438 1.5625 -3.070312 1.5625 -2.6875 C 1.5625 -2.3125 1.648438 -1.984375 1.828125 -1.703125 C 2.015625 -1.421875 2.265625 -1.207031 2.578125 -1.0625 C 2.898438 -0.914062 3.265625 -0.84375 3.671875 -0.84375 Z M 3.671875 -0.84375 "/></g></g></g><g fill="#ffffff" fill-opacity="1"><g transform="translate(255.32345, 241.312064)"><g><path d="M 3.59375 0.109375 C 3 0.109375 2.484375 0.015625 2.046875 -0.171875 C 1.617188 -0.367188 1.289062 -0.648438 1.0625 -1.015625 C 0.832031 -1.378906 0.71875 -1.820312 0.71875 -2.34375 L 0.71875 -4.078125 C 0.71875 -4.335938 0.703125 -4.578125 0.671875 -4.796875 C 0.648438 -5.023438 0.617188 -5.21875 0.578125 -5.375 L 2.046875 -5.375 C 2.003906 -5.21875 1.96875 -5.023438 1.9375 -4.796875 C 1.914062 -4.566406 1.90625 -4.320312 1.90625 -4.0625 L 1.90625 -2.53125 C 1.90625 -2.207031 1.972656 -1.925781 2.109375 -1.6875 C 2.253906 -1.445312 2.453125 -1.257812 2.703125 -1.125 C 2.960938 -1 3.257812 -0.9375 3.59375 -0.9375 C 3.9375 -0.9375 4.234375 -1 4.484375 -1.125 C 4.734375 -1.257812 4.929688 -1.445312 5.078125 -1.6875 C 5.222656 -1.925781 5.296875 -2.207031 5.296875 -2.53125 L 5.296875 -4.0625 C 5.296875 -4.320312 5.28125 -4.566406 5.25 -4.796875 C 5.226562 -5.023438 5.195312 -5.21875 5.15625 -5.375 L 6.625 -5.375 C 6.582031 -5.21875 6.546875 -5.023438 6.515625 -4.796875 C 6.492188 -4.578125 6.484375 -4.335938 6.484375 -4.078125 L 6.484375 -2.34375 C 6.484375 -1.582031 6.234375 -0.984375 5.734375 -0.546875 C 5.234375 -0.109375 4.519531 0.109375 3.59375 0.109375 Z M 3.59375 0.109375 "/></g></g></g><g fill="#ffffff" fill-opacity="1"><g transform="translate(265.186133, 241.312064)"><g><path d="M 6.171875 0.109375 C 5.878906 0.109375 5.644531 0.0703125 5.46875 0 C 5.289062 -0.0820312 5.144531 -0.1875 5.03125 -0.3125 C 4.925781 -0.445312 4.832031 -0.59375 4.75 -0.75 C 4.675781 -0.914062 4.597656 -1.078125 4.515625 -1.234375 C 4.441406 -1.390625 4.34375 -1.53125 4.21875 -1.65625 C 4.09375 -1.789062 3.929688 -1.898438 3.734375 -1.984375 C 3.535156 -2.066406 3.28125 -2.109375 2.96875 -2.109375 C 2.894531 -2.109375 2.789062 -2.101562 2.65625 -2.09375 C 2.519531 -2.09375 2.382812 -2.085938 2.25 -2.078125 C 2.125 -2.066406 2.03125 -2.050781 1.96875 -2.03125 L 1.96875 -1.234375 C 1.96875 -0.710938 2.015625 -0.300781 2.109375 0 L 0.625 0 C 0.664062 -0.15625 0.695312 -0.34375 0.71875 -0.5625 C 0.75 -0.78125 0.765625 -1.019531 0.765625 -1.28125 L 0.765625 -4.078125 C 0.765625 -4.335938 0.75 -4.578125 0.71875 -4.796875 C 0.695312 -5.023438 0.664062 -5.21875 0.625 -5.375 L 4.34375 -5.375 C 4.769531 -5.375 5.144531 -5.316406 5.46875 -5.203125 C 5.800781 -5.097656 6.054688 -4.941406 6.234375 -4.734375 C 6.421875 -4.523438 6.515625 -4.269531 6.515625 -3.96875 C 6.515625 -3.675781 6.425781 -3.421875 6.25 -3.203125 C 6.082031 -2.984375 5.84375 -2.8125 5.53125 -2.6875 C 5.226562 -2.5625 4.867188 -2.5 4.453125 -2.5 L 3.984375 -2.5 L 3.984375 -2.4375 L 4.046875 -2.4375 C 4.316406 -2.4375 4.539062 -2.398438 4.71875 -2.328125 C 4.894531 -2.265625 5.039062 -2.179688 5.15625 -2.078125 C 5.28125 -1.972656 5.382812 -1.863281 5.46875 -1.75 C 5.550781 -1.632812 5.628906 -1.523438 5.703125 -1.421875 C 5.785156 -1.328125 5.875 -1.242188 5.96875 -1.171875 C 6.0625 -1.109375 6.175781 -1.078125 6.3125 -1.078125 C 6.519531 -1.078125 6.675781 -1.125 6.78125 -1.21875 C 6.894531 -1.3125 6.984375 -1.441406 7.046875 -1.609375 L 7.109375 -0.28125 C 7.015625 -0.164062 6.878906 -0.0703125 6.703125 0 C 6.535156 0.0703125 6.359375 0.109375 6.171875 0.109375 Z M 1.96875 -2.953125 L 4.171875 -2.953125 C 4.515625 -2.953125 4.789062 -3.007812 5 -3.125 C 5.21875 -3.25 5.328125 -3.421875 5.328125 -3.640625 C 5.328125 -3.859375 5.222656 -4.023438 5.015625 -4.140625 C 4.816406 -4.265625 4.550781 -4.328125 4.21875 -4.328125 L 1.96875 -4.328125 Z M 1.96875 -2.953125 "/></g></g></g><g fill="#ffffff" fill-opacity="1"><g transform="translate(275.033477, 241.312064)"><g><path d="M 3.328125 0.109375 C 3.023438 0.109375 2.6875 0.0820312 2.3125 0.03125 C 1.945312 -0.0078125 1.585938 -0.0703125 1.234375 -0.15625 C 0.878906 -0.238281 0.5625 -0.332031 0.28125 -0.4375 L 0.34375 -1.65625 C 0.738281 -1.40625 1.191406 -1.210938 1.703125 -1.078125 C 2.222656 -0.953125 2.757812 -0.890625 3.3125 -0.890625 C 3.789062 -0.890625 4.179688 -0.9375 4.484375 -1.03125 C 4.796875 -1.132812 4.953125 -1.300781 4.953125 -1.53125 C 4.953125 -1.664062 4.882812 -1.773438 4.75 -1.859375 C 4.625 -1.953125 4.453125 -2.019531 4.234375 -2.0625 C 4.015625 -2.113281 3.769531 -2.15625 3.5 -2.1875 C 3.226562 -2.21875 2.945312 -2.253906 2.65625 -2.296875 C 2.375 -2.335938 2.097656 -2.390625 1.828125 -2.453125 C 1.554688 -2.523438 1.3125 -2.617188 1.09375 -2.734375 C 0.882812 -2.859375 0.710938 -3.015625 0.578125 -3.203125 C 0.453125 -3.390625 0.390625 -3.617188 0.390625 -3.890625 C 0.390625 -4.242188 0.515625 -4.535156 0.765625 -4.765625 C 1.023438 -4.992188 1.367188 -5.171875 1.796875 -5.296875 C 2.222656 -5.421875 2.695312 -5.484375 3.21875 -5.484375 C 3.507812 -5.484375 3.800781 -5.460938 4.09375 -5.421875 C 4.394531 -5.390625 4.679688 -5.335938 4.953125 -5.265625 C 5.222656 -5.203125 5.457031 -5.128906 5.65625 -5.046875 L 5.65625 -3.90625 C 5.375 -4.070312 5.015625 -4.207031 4.578125 -4.3125 C 4.148438 -4.414062 3.710938 -4.46875 3.265625 -4.46875 C 2.972656 -4.46875 2.703125 -4.445312 2.453125 -4.40625 C 2.203125 -4.375 2 -4.316406 1.84375 -4.234375 C 1.695312 -4.148438 1.625 -4.03125 1.625 -3.875 C 1.625 -3.738281 1.6875 -3.625 1.8125 -3.53125 C 1.945312 -3.445312 2.117188 -3.378906 2.328125 -3.328125 C 2.546875 -3.285156 2.789062 -3.242188 3.0625 -3.203125 C 3.332031 -3.171875 3.613281 -3.132812 3.90625 -3.09375 C 4.195312 -3.050781 4.476562 -3 4.75 -2.9375 C 5.019531 -2.875 5.265625 -2.785156 5.484375 -2.671875 C 5.703125 -2.554688 5.875 -2.40625 6 -2.21875 C 6.125 -2.039062 6.1875 -1.816406 6.1875 -1.546875 C 6.1875 -1.203125 6.066406 -0.90625 5.828125 -0.65625 C 5.597656 -0.414062 5.269531 -0.226562 4.84375 -0.09375 C 4.414062 0.0390625 3.910156 0.109375 3.328125 0.109375 Z M 3.328125 0.109375 "/></g></g></g><g fill="#ffffff" fill-opacity="1"><g transform="translate(118.966216, 178.617631)"><g><path d="M 0.5 0 C 0.570312 -0.25 0.609375 -0.59375 0.609375 -1.03125 L 0.609375 -3.234375 C 0.609375 -3.441406 0.597656 -3.632812 0.578125 -3.8125 C 0.554688 -4 0.53125 -4.148438 0.5 -4.265625 L 4.671875 -4.265625 L 4.8125 -3.34375 C 4.75 -3.375 4.648438 -3.398438 4.515625 -3.421875 C 4.378906 -3.441406 4.203125 -3.453125 3.984375 -3.453125 L 1.546875 -3.453125 L 1.546875 -2.53125 L 3.515625 -2.53125 C 3.796875 -2.53125 4.007812 -2.546875 4.15625 -2.578125 L 4.15625 -1.703125 C 4.007812 -1.734375 3.796875 -1.75 3.515625 -1.75 L 1.546875 -1.75 L 1.546875 -0.8125 L 4.03125 -0.8125 C 4.269531 -0.8125 4.460938 -0.820312 4.609375 -0.84375 C 4.753906 -0.875 4.875 -0.914062 4.96875 -0.96875 L 4.796875 0 Z M 0.5 0 "/></g></g></g><g fill="#ffffff" fill-opacity="1"><g transform="translate(126.309732, 178.617631)"><g><path d="M 2.640625 0.078125 C 2.398438 0.078125 2.132812 0.0546875 1.84375 0.015625 C 1.550781 -0.015625 1.265625 -0.0625 0.984375 -0.125 C 0.703125 -0.1875 0.445312 -0.257812 0.21875 -0.34375 L 0.265625 -1.3125 C 0.585938 -1.113281 0.953125 -0.960938 1.359375 -0.859375 C 1.765625 -0.765625 2.1875 -0.71875 2.625 -0.71875 C 3.007812 -0.71875 3.320312 -0.753906 3.5625 -0.828125 C 3.8125 -0.898438 3.9375 -1.03125 3.9375 -1.21875 C 3.9375 -1.332031 3.882812 -1.421875 3.78125 -1.484375 C 3.675781 -1.546875 3.535156 -1.597656 3.359375 -1.640625 C 3.191406 -1.679688 3 -1.710938 2.78125 -1.734375 C 2.570312 -1.765625 2.351562 -1.796875 2.125 -1.828125 C 1.894531 -1.859375 1.671875 -1.898438 1.453125 -1.953125 C 1.242188 -2.015625 1.050781 -2.09375 0.875 -2.1875 C 0.695312 -2.28125 0.554688 -2.398438 0.453125 -2.546875 C 0.359375 -2.691406 0.3125 -2.875 0.3125 -3.09375 C 0.3125 -3.375 0.410156 -3.601562 0.609375 -3.78125 C 0.804688 -3.96875 1.078125 -4.109375 1.421875 -4.203125 C 1.765625 -4.296875 2.140625 -4.34375 2.546875 -4.34375 C 2.785156 -4.34375 3.019531 -4.328125 3.25 -4.296875 C 3.488281 -4.273438 3.710938 -4.238281 3.921875 -4.1875 C 4.140625 -4.132812 4.328125 -4.078125 4.484375 -4.015625 L 4.484375 -3.109375 C 4.265625 -3.234375 3.984375 -3.335938 3.640625 -3.421875 C 3.296875 -3.503906 2.945312 -3.546875 2.59375 -3.546875 C 2.363281 -3.546875 2.148438 -3.53125 1.953125 -3.5 C 1.753906 -3.476562 1.59375 -3.429688 1.46875 -3.359375 C 1.351562 -3.296875 1.296875 -3.203125 1.296875 -3.078125 C 1.296875 -2.960938 1.34375 -2.867188 1.4375 -2.796875 C 1.539062 -2.734375 1.675781 -2.679688 1.84375 -2.640625 C 2.019531 -2.609375 2.21875 -2.578125 2.4375 -2.546875 C 2.65625 -2.515625 2.878906 -2.484375 3.109375 -2.453125 C 3.335938 -2.421875 3.554688 -2.378906 3.765625 -2.328125 C 3.984375 -2.273438 4.175781 -2.203125 4.34375 -2.109375 C 4.519531 -2.023438 4.660156 -1.910156 4.765625 -1.765625 C 4.867188 -1.617188 4.921875 -1.4375 4.921875 -1.21875 C 4.921875 -0.945312 4.828125 -0.710938 4.640625 -0.515625 C 4.453125 -0.328125 4.1875 -0.179688 3.84375 -0.078125 C 3.507812 0.0234375 3.109375 0.078125 2.640625 0.078125 Z M 2.640625 0.078125 "/></g></g></g><g fill="#ffffff" fill-opacity="1"><g transform="translate(118.664681, 186.7432)"><g><path d="M 1.90625 0 C 1.9375 -0.125 1.960938 -0.273438 1.984375 -0.453125 C 2.003906 -0.628906 2.015625 -0.820312 2.015625 -1.03125 L 2.015625 -3.4375 L 0.953125 -3.4375 C 0.753906 -3.4375 0.59375 -3.425781 0.46875 -3.40625 C 0.34375 -3.394531 0.226562 -3.367188 0.125 -3.328125 L 0.3125 -4.265625 L 4.65625 -4.265625 L 4.84375 -3.328125 C 4.75 -3.359375 4.640625 -3.382812 4.515625 -3.40625 C 4.390625 -3.425781 4.222656 -3.4375 4.015625 -3.4375 L 2.96875 -3.4375 L 2.96875 -1.03125 C 2.96875 -0.820312 2.972656 -0.628906 2.984375 -0.453125 C 3.003906 -0.273438 3.035156 -0.125 3.078125 0 Z M 1.90625 0 "/></g></g></g><g fill="#ffffff" fill-opacity="1"><g transform="translate(125.752243, 186.7432)"><g><path d="M 0.5 0 C 0.570312 -0.25 0.609375 -0.59375 0.609375 -1.03125 L 0.609375 -3.234375 C 0.609375 -3.441406 0.597656 -3.632812 0.578125 -3.8125 C 0.554688 -4 0.53125 -4.148438 0.5 -4.265625 L 2.953125 -4.265625 C 3.453125 -4.265625 3.882812 -4.175781 4.25 -4 C 4.625 -3.832031 4.914062 -3.585938 5.125 -3.265625 C 5.332031 -2.953125 5.4375 -2.570312 5.4375 -2.125 C 5.4375 -1.6875 5.332031 -1.304688 5.125 -0.984375 C 4.914062 -0.671875 4.625 -0.425781 4.25 -0.25 C 3.882812 -0.0820312 3.453125 0 2.953125 0 Z M 1.546875 -0.828125 L 2.890625 -0.828125 C 3.191406 -0.828125 3.460938 -0.878906 3.703125 -0.984375 C 3.941406 -1.085938 4.125 -1.234375 4.25 -1.421875 C 4.382812 -1.617188 4.453125 -1.851562 4.453125 -2.125 C 4.453125 -2.40625 4.382812 -2.640625 4.25 -2.828125 C 4.125 -3.023438 3.941406 -3.175781 3.703125 -3.28125 C 3.460938 -3.382812 3.191406 -3.4375 2.890625 -3.4375 L 1.546875 -3.4375 Z M 1.546875 -0.828125 "/></g></g></g><g fill="#ffffff" fill-opacity="1"><g transform="translate(243.527626, 178.617631)"><g><path d="M 0.25 0 L 0.25 -0.78125 L 2.765625 -2.265625 C 3.003906 -2.421875 3.175781 -2.554688 3.28125 -2.671875 C 3.382812 -2.785156 3.4375 -2.90625 3.4375 -3.03125 C 3.4375 -3.164062 3.375 -3.269531 3.25 -3.34375 C 3.132812 -3.425781 2.984375 -3.484375 2.796875 -3.515625 C 2.609375 -3.546875 2.40625 -3.5625 2.1875 -3.5625 C 1.945312 -3.5625 1.710938 -3.535156 1.484375 -3.484375 C 1.253906 -3.441406 1.046875 -3.382812 0.859375 -3.3125 C 0.671875 -3.238281 0.523438 -3.160156 0.421875 -3.078125 L 0.421875 -3.953125 C 0.671875 -4.054688 0.957031 -4.144531 1.28125 -4.21875 C 1.613281 -4.300781 1.988281 -4.34375 2.40625 -4.34375 C 2.800781 -4.34375 3.15625 -4.296875 3.46875 -4.203125 C 3.78125 -4.109375 4.023438 -3.96875 4.203125 -3.78125 C 4.390625 -3.601562 4.484375 -3.382812 4.484375 -3.125 C 4.484375 -2.863281 4.382812 -2.640625 4.1875 -2.453125 C 4 -2.273438 3.734375 -2.078125 3.390625 -1.859375 L 1.65625 -0.859375 L 1.65625 -0.8125 L 3.765625 -0.8125 C 3.941406 -0.8125 4.101562 -0.832031 4.25 -0.875 C 4.40625 -0.914062 4.519531 -0.96875 4.59375 -1.03125 L 4.546875 0 Z M 0.25 0 "/></g></g></g><g fill="#ffffff" fill-opacity="1"><g transform="translate(250.57862, 178.617631)"><g><path d="M 2.71875 0.078125 C 2.25 0.078125 1.828125 -0.00390625 1.453125 -0.171875 C 1.085938 -0.347656 0.796875 -0.601562 0.578125 -0.9375 C 0.359375 -1.269531 0.25 -1.664062 0.25 -2.125 C 0.25 -2.601562 0.359375 -3.003906 0.578125 -3.328125 C 0.796875 -3.660156 1.085938 -3.910156 1.453125 -4.078125 C 1.828125 -4.253906 2.25 -4.34375 2.71875 -4.34375 C 3.195312 -4.34375 3.617188 -4.253906 3.984375 -4.078125 C 4.359375 -3.910156 4.648438 -3.660156 4.859375 -3.328125 C 5.078125 -3.003906 5.1875 -2.601562 5.1875 -2.125 C 5.1875 -1.664062 5.078125 -1.269531 4.859375 -0.9375 C 4.648438 -0.601562 4.359375 -0.347656 3.984375 -0.171875 C 3.617188 -0.00390625 3.195312 0.078125 2.71875 0.078125 Z M 2.71875 -0.71875 C 3.050781 -0.71875 3.347656 -0.769531 3.609375 -0.875 C 3.867188 -0.976562 4.070312 -1.132812 4.21875 -1.34375 C 4.375 -1.550781 4.453125 -1.8125 4.453125 -2.125 C 4.453125 -2.445312 4.375 -2.710938 4.21875 -2.921875 C 4.070312 -3.128906 3.867188 -3.285156 3.609375 -3.390625 C 3.347656 -3.492188 3.050781 -3.546875 2.71875 -3.546875 C 2.394531 -3.546875 2.101562 -3.492188 1.84375 -3.390625 C 1.582031 -3.285156 1.375 -3.128906 1.21875 -2.921875 C 1.070312 -2.710938 1 -2.445312 1 -2.125 C 1 -1.8125 1.070312 -1.550781 1.21875 -1.34375 C 1.375 -1.132812 1.582031 -0.976562 1.84375 -0.875 C 2.101562 -0.769531 2.394531 -0.71875 2.71875 -0.71875 Z M 2.71875 -0.71875 "/></g></g></g><g fill="#ffffff" fill-opacity="1"><g transform="translate(243.527626, 186.7432)"><g><path d="M 3.28125 0 C 3.3125 -0.0820312 3.332031 -0.207031 3.34375 -0.375 C 3.351562 -0.550781 3.363281 -0.742188 3.375 -0.953125 L 0.1875 -0.953125 L 0.15625 -1.328125 L 2.828125 -4.15625 L 3.359375 -3.796875 C 3.347656 -3.972656 3.320312 -4.128906 3.28125 -4.265625 L 4.453125 -4.265625 C 4.421875 -4.140625 4.394531 -3.984375 4.375 -3.796875 C 4.351562 -3.617188 4.34375 -3.441406 4.34375 -3.265625 L 4.34375 -1.65625 L 5.09375 -1.65625 L 5.09375 -0.953125 L 4.375 -0.953125 C 4.375 -0.753906 4.378906 -0.566406 4.390625 -0.390625 C 4.410156 -0.222656 4.429688 -0.09375 4.453125 0 Z M 1.8125 -1.65625 L 3.40625 -1.65625 L 3.40625 -3.3125 Z M 1.8125 -1.65625 "/></g></g></g><g fill="#ffffff" fill-opacity="1"><g transform="translate(250.974748, 186.7432)"><g><path d="M 0.25 0 L 0.25 -0.78125 L 2.765625 -2.265625 C 3.003906 -2.421875 3.175781 -2.554688 3.28125 -2.671875 C 3.382812 -2.785156 3.4375 -2.90625 3.4375 -3.03125 C 3.4375 -3.164062 3.375 -3.269531 3.25 -3.34375 C 3.132812 -3.425781 2.984375 -3.484375 2.796875 -3.515625 C 2.609375 -3.546875 2.40625 -3.5625 2.1875 -3.5625 C 1.945312 -3.5625 1.710938 -3.535156 1.484375 -3.484375 C 1.253906 -3.441406 1.046875 -3.382812 0.859375 -3.3125 C 0.671875 -3.238281 0.523438 -3.160156 0.421875 -3.078125 L 0.421875 -3.953125 C 0.671875 -4.054688 0.957031 -4.144531 1.28125 -4.21875 C 1.613281 -4.300781 1.988281 -4.34375 2.40625 -4.34375 C 2.800781 -4.34375 3.15625 -4.296875 3.46875 -4.203125 C 3.78125 -4.109375 4.023438 -3.96875 4.203125 -3.78125 C 4.390625 -3.601562 4.484375 -3.382812 4.484375 -3.125 C 4.484375 -2.863281 4.382812 -2.640625 4.1875 -2.453125 C 4 -2.273438 3.734375 -2.078125 3.390625 -1.859375 L 1.65625 -0.859375 L 1.65625 -0.8125 L 3.765625 -0.8125 C 3.941406 -0.8125 4.101562 -0.832031 4.25 -0.875 C 4.40625 -0.914062 4.519531 -0.96875 4.59375 -1.03125 L 4.546875 0 Z M 0.25 0 "/></g></g></g></svg>