<svg xmlns="http://www.w3.org/2000/svg" xmlns:xlink="http://www.w3.org/1999/xlink" width="200" zoomAndPan="magnify" viewBox="0 0 150 149.999998" height="200" preserveAspectRatio="xMidYMid meet" version="1.0"><defs><clipPath id="1802a3fbaf"><path d="M 79.457031 80.109375 L 88.457031 80.109375 L 88.457031 89 L 79.457031 89 Z M 79.457031 80.109375 " clip-rule="nonzero"/></clipPath><clipPath id="c027142f15"><path d="M 84 80.109375 L 88.457031 80.109375 L 88.457031 85 L 84 85 Z M 84 80.109375 " clip-rule="nonzero"/></clipPath><clipPath id="64fd30914e"><path d="M 79.457031 86 L 83 86 L 83 89 L 79.457031 89 Z M 79.457031 86 " clip-rule="nonzero"/></clipPath><clipPath id="22a5777d22"><path d="M 86 87 L 88.457031 87 L 88.457031 89 L 86 89 Z M 86 87 " clip-rule="nonzero"/></clipPath></defs><path fill="#ff3131" d="M 91.699219 77.691406 L 67.167969 77.691406 C 65.984375 76 64.027344 74.886719 61.8125 74.886719 C 58.207031 74.886719 55.273438 77.820312 55.273438 81.425781 C 55.273438 85.03125 58.207031 87.964844 61.8125 87.964844 C 63.640625 87.964844 65.292969 87.207031 66.484375 85.992188 L 66.484375 89.832031 L 53.40625 89.832031 L 53.40625 78.625 C 53.40625 75.535156 50.890625 73.019531 47.800781 73.019531 L 45.933594 73.019531 C 45.417969 73.019531 45 73.4375 45 73.953125 L 45 103.84375 C 45 104.359375 45.417969 104.777344 45.933594 104.777344 L 103.84375 104.777344 C 104.359375 104.777344 104.777344 104.359375 104.777344 103.84375 L 104.777344 90.765625 C 104.777344 83.554688 98.910156 77.691406 91.699219 77.691406 Z M 68.351562 79.558594 L 91.699219 79.558594 C 97.566406 79.558594 102.382812 84.089844 102.863281 89.832031 L 68.351562 89.832031 Z M 61.8125 86.097656 C 59.238281 86.097656 57.140625 84 57.140625 81.425781 C 57.140625 78.851562 59.238281 76.757812 61.8125 76.757812 C 64.386719 76.757812 66.484375 78.851562 66.484375 81.425781 C 66.484375 84 64.386719 86.097656 61.8125 86.097656 Z M 102.910156 95.4375 L 65.546875 95.4375 C 65.03125 95.4375 64.613281 95.855469 64.613281 96.371094 C 64.613281 96.886719 65.03125 97.304688 65.546875 97.304688 L 102.910156 97.304688 L 102.910156 102.910156 L 46.867188 102.910156 L 46.867188 97.304688 L 58.078125 97.304688 C 58.59375 97.304688 59.011719 96.886719 59.011719 96.371094 C 59.011719 95.855469 58.59375 95.4375 58.078125 95.4375 L 46.867188 95.4375 L 46.867188 74.886719 L 47.800781 74.886719 C 49.863281 74.886719 51.539062 76.5625 51.539062 78.625 L 51.539062 90.765625 C 51.539062 91.285156 51.957031 91.699219 52.472656 91.699219 L 102.910156 91.699219 Z M 102.910156 95.4375 " fill-opacity="1" fill-rule="nonzero"/><path fill="#ff3131" d="M 76.667969 64.453125 C 75.917969 64.011719 75.246094 63.441406 74.671875 62.753906 C 74.398438 62.429688 73.933594 62.324219 73.546875 62.511719 C 73.160156 62.699219 72.953125 63.125 73.039062 63.542969 C 73.789062 67.144531 76.03125 70.277344 79.1875 72.136719 C 81.261719 73.355469 83.542969 73.9375 85.792969 73.9375 C 90.277344 73.9375 94.652344 71.632812 97.09375 67.5 C 98.863281 64.492188 99.355469 60.972656 98.480469 57.59375 C 97.605469 54.210938 95.464844 51.371094 92.453125 49.601562 C 89.292969 47.742188 85.46875 47.304688 81.960938 48.394531 C 81.550781 48.523438 81.28125 48.914062 81.308594 49.339844 C 81.332031 49.769531 81.644531 50.125 82.066406 50.203125 C 82.941406 50.371094 83.765625 50.679688 84.519531 51.121094 C 86.300781 52.167969 87.566406 53.847656 88.085938 55.847656 C 88.601562 57.847656 88.3125 59.929688 87.261719 61.710938 C 85.09375 65.386719 80.339844 66.617188 76.667969 64.453125 Z M 85.738281 49.675781 C 87.710938 49.675781 89.777344 50.195312 91.507812 51.214844 C 94.089844 52.730469 95.921875 55.160156 96.671875 58.0625 C 97.421875 60.957031 97 63.972656 95.484375 66.550781 C 92.34375 71.871094 85.460938 73.65625 80.136719 70.527344 C 78.371094 69.488281 76.945312 67.988281 75.984375 66.214844 C 80.503906 68.6875 86.230469 67.136719 88.871094 62.660156 C 90.171875 60.449219 90.535156 57.863281 89.894531 55.378906 C 89.277344 52.996094 87.808594 50.984375 85.738281 49.675781 Z M 85.738281 49.675781 " fill-opacity="1" fill-rule="nonzero"/><path fill="#ff3131" d="M 62.292969 54.222656 L 66.226562 56.40625 L 68.433594 61.265625 C 68.585938 61.597656 68.917969 61.8125 69.285156 61.8125 C 69.652344 61.8125 69.984375 61.597656 70.132812 61.265625 L 72.34375 56.40625 L 76.277344 54.222656 C 76.574219 54.058594 76.757812 53.746094 76.757812 53.40625 C 76.757812 53.066406 76.574219 52.753906 76.277344 52.589844 L 72.34375 50.40625 L 70.132812 45.546875 C 69.984375 45.214844 69.652344 45 69.285156 45 C 68.917969 45 68.585938 45.214844 68.433594 45.546875 L 66.226562 50.40625 L 62.292969 52.589844 C 61.996094 52.753906 61.8125 53.066406 61.8125 53.40625 C 61.8125 53.746094 61.996094 54.058594 62.292969 54.222656 Z M 67.402344 51.886719 C 67.578125 51.789062 67.71875 51.640625 67.800781 51.457031 L 69.285156 48.191406 L 70.769531 51.457031 C 70.851562 51.640625 70.992188 51.789062 71.164062 51.886719 L 73.898438 53.40625 L 71.164062 54.925781 C 70.992188 55.023438 70.851562 55.171875 70.769531 55.355469 L 69.285156 58.621094 L 67.800781 55.355469 C 67.71875 55.171875 67.578125 55.023438 67.402344 54.925781 L 64.667969 53.40625 Z M 67.402344 51.886719 " fill-opacity="1" fill-rule="nonzero"/><path fill="#ff3131" d="M 52.988281 65.449219 L 56.40625 67.160156 L 58.144531 71.5 C 58.285156 71.855469 58.628906 72.085938 59.011719 72.085938 C 59.390625 72.085938 59.734375 71.855469 59.878906 71.5 L 61.613281 67.160156 L 65.03125 65.449219 C 65.347656 65.292969 65.546875 64.96875 65.546875 64.613281 C 65.546875 64.261719 65.347656 63.9375 65.03125 63.777344 L 61.613281 62.070312 L 59.878906 57.730469 C 59.734375 57.375 59.390625 57.140625 59.011719 57.140625 C 58.628906 57.140625 58.285156 57.375 58.144531 57.730469 L 56.40625 62.070312 L 52.988281 63.777344 C 52.671875 63.9375 52.472656 64.261719 52.472656 64.613281 C 52.472656 64.96875 52.671875 65.292969 52.988281 65.449219 Z M 57.558594 63.582031 C 57.765625 63.480469 57.925781 63.304688 58.007812 63.09375 L 59.011719 60.589844 L 60.011719 63.09375 C 60.097656 63.304688 60.253906 63.480469 60.460938 63.582031 L 62.527344 64.613281 L 60.460938 65.648438 C 60.253906 65.75 60.097656 65.921875 60.011719 66.136719 L 59.011719 68.636719 L 58.007812 66.136719 C 57.925781 65.921875 57.765625 65.75 57.558594 65.648438 L 55.496094 64.613281 Z M 57.558594 63.582031 " fill-opacity="1" fill-rule="nonzero"/><path fill="#ff3131" d="M 62.746094 96.371094 C 62.746094 96.628906 62.65625 96.847656 62.472656 97.03125 C 62.289062 97.214844 62.070312 97.304688 61.8125 97.304688 C 61.554688 97.304688 61.335938 97.214844 61.152344 97.03125 C 60.96875 96.847656 60.878906 96.628906 60.878906 96.371094 C 60.878906 96.113281 60.96875 95.894531 61.152344 95.710938 C 61.335938 95.527344 61.554688 95.4375 61.8125 95.4375 C 62.070312 95.4375 62.289062 95.527344 62.472656 95.710938 C 62.65625 95.894531 62.746094 96.113281 62.746094 96.371094 Z M 62.746094 96.371094 " fill-opacity="1" fill-rule="nonzero"/><g clip-path="url(#1802a3fbaf)"><path fill="#ff3131" d="M 85.410156 85.984375 C 84.753906 85.328125 84.375 84.777344 84.160156 84.570312 C 84.652344 84.613281 85.914062 84.527344 88.375 84.527344 C 85.910156 84.527344 84.652344 84.441406 84.160156 84.484375 C 84.375 84.277344 84.753906 83.730469 85.410156 83.074219 C 84.753906 83.730469 84.207031 84.109375 83.996094 84.324219 C 84.042969 83.832031 83.957031 82.570312 83.957031 80.109375 C 83.957031 82.570312 83.867188 83.832031 83.914062 84.324219 C 83.707031 84.109375 83.160156 83.730469 82.5 83.074219 C 83.160156 83.730469 83.539062 84.277344 83.75 84.484375 C 83.257812 84.445312 82 84.527344 79.539062 84.527344 C 82 84.527344 83.257812 84.617188 83.75 84.570312 C 83.539062 84.777344 83.160156 85.328125 82.5 85.984375 C 83.160156 85.328125 83.707031 84.945312 83.914062 84.734375 C 83.871094 85.226562 83.957031 86.488281 83.957031 88.945312 C 83.957031 86.484375 84.042969 85.226562 83.996094 84.734375 C 84.207031 84.945312 84.753906 85.328125 85.410156 85.984375 Z M 85.410156 85.984375 " fill-opacity="1" fill-rule="nonzero"/></g><g clip-path="url(#c027142f15)"><path fill="#ff3131" d="M 87.179688 83.082031 C 86.890625 82.796875 86.722656 82.554688 86.628906 82.46875 C 86.84375 82.488281 87.398438 82.449219 88.476562 82.449219 C 87.394531 82.449219 86.84375 82.414062 86.628906 82.429688 C 86.722656 82.34375 86.894531 82.101562 87.179688 81.8125 C 86.890625 82.101562 86.652344 82.265625 86.558594 82.359375 C 86.578125 82.144531 86.539062 81.589844 86.539062 80.511719 C 86.539062 81.59375 86.503906 82.144531 86.519531 82.359375 C 86.433594 82.265625 86.1875 82.09375 85.90625 81.8125 C 86.195312 82.101562 86.359375 82.339844 86.453125 82.429688 C 86.238281 82.414062 85.683594 82.449219 84.605469 82.449219 C 85.6875 82.449219 86.238281 82.488281 86.453125 82.46875 C 86.359375 82.554688 86.191406 82.800781 85.90625 83.089844 C 86.195312 82.800781 86.433594 82.632812 86.519531 82.539062 C 86.503906 82.757812 86.539062 83.308594 86.539062 84.386719 C 86.539062 83.308594 86.578125 82.753906 86.558594 82.539062 C 86.648438 82.628906 86.890625 82.796875 87.179688 83.082031 Z M 87.179688 83.082031 " fill-opacity="1" fill-rule="nonzero"/></g><g clip-path="url(#64fd30914e)"><path fill="#ff3131" d="M 81.277344 87.910156 C 81.074219 87.703125 80.957031 87.535156 80.890625 87.46875 C 81.042969 87.484375 81.433594 87.457031 82.195312 87.457031 C 81.433594 87.457031 81.042969 87.429688 80.890625 87.445312 C 80.957031 87.378906 81.074219 87.210938 81.277344 87.003906 C 81.074219 87.207031 80.90625 87.324219 80.839844 87.390625 C 80.851562 87.238281 80.828125 86.847656 80.828125 86.085938 C 80.828125 86.847656 80.800781 87.238281 80.8125 87.390625 C 80.75 87.324219 80.578125 87.207031 80.375 87.003906 C 80.578125 87.207031 80.695312 87.378906 80.761719 87.445312 C 80.609375 87.429688 80.21875 87.457031 79.457031 87.457031 C 80.21875 87.457031 80.609375 87.484375 80.761719 87.46875 C 80.695312 87.535156 80.578125 87.703125 80.375 87.910156 C 80.578125 87.703125 80.75 87.585938 80.8125 87.519531 C 80.800781 87.675781 80.828125 88.066406 80.828125 88.828125 C 80.828125 88.066406 80.851562 87.675781 80.839844 87.519531 C 80.90625 87.582031 81.074219 87.703125 81.277344 87.910156 Z M 81.277344 87.910156 " fill-opacity="1" fill-rule="nonzero"/></g><path fill="#ff3131" d="M 81.546875 81.957031 C 81.445312 81.855469 81.386719 81.769531 81.355469 81.738281 C 81.429688 81.746094 81.625 81.734375 82.003906 81.734375 C 81.625 81.734375 81.429688 81.71875 81.355469 81.726562 C 81.386719 81.695312 81.441406 81.609375 81.546875 81.507812 C 81.445312 81.609375 81.359375 81.667969 81.328125 81.703125 C 81.335938 81.625 81.324219 81.433594 81.324219 81.054688 C 81.324219 81.433594 81.308594 81.625 81.316406 81.703125 C 81.285156 81.667969 81.199219 81.613281 81.097656 81.507812 C 81.199219 81.605469 81.257812 81.691406 81.292969 81.722656 C 81.214844 81.714844 81.023438 81.730469 80.644531 81.730469 C 81.023438 81.730469 81.214844 81.742188 81.292969 81.734375 C 81.257812 81.765625 81.203125 81.851562 81.097656 81.953125 C 81.199219 81.851562 81.285156 81.792969 81.316406 81.761719 C 81.308594 81.835938 81.324219 82.03125 81.324219 82.40625 C 81.324219 82.03125 81.335938 81.835938 81.328125 81.761719 C 81.359375 81.792969 81.445312 81.851562 81.546875 81.957031 Z M 81.546875 81.957031 " fill-opacity="1" fill-rule="nonzero"/><path fill="#ff3131" d="M 83.308594 86.992188 C 83.207031 86.890625 83.148438 86.804688 83.117188 86.773438 C 83.191406 86.78125 83.382812 86.769531 83.761719 86.769531 C 83.382812 86.769531 83.191406 86.753906 83.117188 86.761719 C 83.148438 86.730469 83.203125 86.644531 83.308594 86.542969 C 83.207031 86.644531 83.121094 86.703125 83.089844 86.734375 C 83.097656 86.660156 83.082031 86.464844 83.082031 86.089844 C 83.082031 86.464844 83.070312 86.660156 83.078125 86.734375 C 83.046875 86.703125 82.960938 86.648438 82.859375 86.542969 C 82.960938 86.644531 83.019531 86.730469 83.050781 86.761719 C 82.976562 86.753906 82.78125 86.769531 82.402344 86.769531 C 82.78125 86.769531 82.976562 86.78125 83.050781 86.773438 C 83.019531 86.804688 82.964844 86.890625 82.859375 86.992188 C 82.960938 86.890625 83.046875 86.832031 83.078125 86.800781 C 83.070312 86.875 83.082031 87.070312 83.082031 87.449219 C 83.082031 87.070312 83.097656 86.875 83.089844 86.800781 C 83.121094 86.832031 83.207031 86.890625 83.308594 86.992188 Z M 83.308594 86.992188 " fill-opacity="1" fill-rule="nonzero"/><g clip-path="url(#22a5777d22)"><path fill="#ff3131" d="M 87.867188 88.117188 C 87.757812 88.003906 87.691406 87.910156 87.65625 87.875 C 87.746094 87.882812 87.957031 87.867188 88.375 87.867188 C 87.957031 87.867188 87.738281 87.855469 87.65625 87.863281 C 87.691406 87.828125 87.757812 87.730469 87.867188 87.621094 C 87.757812 87.730469 87.664062 87.796875 87.628906 87.832031 C 87.636719 87.746094 87.621094 87.535156 87.621094 87.117188 C 87.621094 87.535156 87.605469 87.75 87.613281 87.832031 C 87.578125 87.796875 87.484375 87.730469 87.375 87.621094 C 87.484375 87.730469 87.550781 87.828125 87.585938 87.863281 C 87.5 87.855469 87.289062 87.867188 86.867188 87.867188 C 87.289062 87.867188 87.503906 87.882812 87.585938 87.875 C 87.550781 87.910156 87.484375 88.003906 87.375 88.117188 C 87.484375 88.003906 87.578125 87.941406 87.613281 87.902344 C 87.605469 87.992188 87.621094 88.203125 87.621094 88.621094 C 87.621094 88.203125 87.636719 87.988281 87.628906 87.902344 C 87.664062 87.941406 87.757812 88.003906 87.867188 88.117188 Z M 87.867188 88.117188 " fill-opacity="1" fill-rule="nonzero"/></g></svg>